<?xml version="1.0" standalone="no"?>
<!DOCTYPE svg PUBLIC "-//W3C//DTD SVG 20010904//EN"
 "http://www.w3.org/TR/2001/REC-SVG-20010904/DTD/svg10.dtd">
<svg version="1.0" xmlns="http://www.w3.org/2000/svg"
 width="1024.000000pt" height="1024.000000pt" viewBox="0 0 1024.000000 1024.000000"
 preserveAspectRatio="xMidYMid meet">

<g transform="translate(0.000000,1024.000000) scale(0.100000,-0.100000)"
fill="#000000" stroke="none">
<path d="M10 6303 c0 -2166 -1 -4284 -1 -4708 0 -423 0 -956 0 -1182 l1 -413
5115 0 5115 0 0 5120 0 5120 -5115 0 -5115 0 0 -3937z m5143 3120 c-7 -2 -19
-2 -25 0 -7 3 -2 5 12 5 14 0 19 -2 13 -5z m830 -21 c15 -14 17 -13 18 4 0 11
3 13 6 7 2 -7 13 -13 24 -13 10 0 19 -6 19 -12 0 -26 -13 -58 -20 -53 -10 6
-21 -20 -26 -59 -2 -17 -14 -42 -27 -56 -12 -14 -7 -11 11 7 17 18 32 29 32
25 0 -4 5 1 11 11 7 13 23 17 61 17 44 0 49 -2 38 -15 -8 -10 -17 -12 -24 -6
-7 6 -18 6 -26 1 -11 -7 -11 -12 -2 -23 14 -16 5 -50 -9 -41 -5 3 -8 2 -7 -3
1 -4 -5 -30 -14 -58 -9 -27 -19 -63 -22 -78 -4 -15 -11 -25 -16 -22 -6 3 -10
-3 -10 -14 0 -12 -4 -21 -10 -21 -5 0 -10 8 -10 18 0 14 -9 18 -42 19 -24 0
-37 -1 -30 -4 6 -2 12 -11 12 -18 0 -8 10 -31 22 -52 27 -48 12 -34 -37 37
-22 30 -71 88 -109 128 -39 40 -63 70 -53 66 19 -7 20 -3 19 106 -1 47 2 61 9
50 9 -12 10 -12 5 3 -3 10 -3 29 0 41 5 20 12 22 71 24 37 1 69 4 71 7 8 8 45
-5 65 -23z m-916 12 c-3 -3 -12 -4 -19 -1 -8 3 -5 6 6 6 11 1 17 -2 13 -5z
m305 -14 c21 -8 21 -9 3 -9 -11 0 -51 7 -90 14 l-70 14 67 -5 c37 -2 78 -9 90
-14z m-364 3 c-10 -2 -26 -2 -35 0 -10 3 -2 5 17 5 19 0 27 -2 18 -5z m477
-43 c7 -12 -2 -12 -30 0 -19 8 -19 9 2 9 12 1 25 -3 28 -9z m-1097 -23 c6 -5
12 -25 12 -43 0 -27 4 -34 20 -34 11 0 20 -6 21 -12 0 -9 2 -9 6 1 4 10 7 10
13 1 5 -9 13 -9 27 -2 14 8 23 8 32 -1 9 -9 14 -9 20 2 5 7 14 11 20 7 7 -5 9
-1 5 11 -5 17 -5 17 6 0 10 -16 8 -21 -12 -35 -31 -22 -149 -132 -141 -132 3
0 -2 -9 -12 -20 -10 -11 -21 -17 -25 -15 -4 3 -11 -2 -14 -11 -4 -10 -2 -13 7
-8 6 4 3 -2 -7 -14 -11 -12 -25 -22 -33 -22 -7 0 -13 -7 -13 -16 0 -8 4 -13 9
-9 5 3 3 -8 -5 -25 -9 -16 -18 -30 -20 -30 -3 0 -2 5 1 10 3 6 0 17 -7 25 -30
33 -38 45 -38 54 0 5 -10 12 -22 16 -13 3 -40 14 -60 23 -40 18 -44 29 -39
101 2 19 -3 37 -10 42 -10 6 -10 11 0 22 9 11 9 16 0 19 -15 5 38 68 57 68 9
0 12 -4 9 -10 -3 -5 -1 -10 4 -10 6 0 11 7 11 15 0 8 5 15 11 15 5 0 7 -5 4
-10 -9 -15 48 0 57 14 4 6 13 11 20 11 7 1 12 6 11 13 -3 13 54 5 75 -11z
m941 -43 c163 -37 337 -154 450 -304 118 -157 162 -289 164 -495 2 -184 -32
-296 -133 -445 -63 -93 -215 -233 -272 -252 -13 -5 5 -42 35 -75 l20 -22 96
78 c125 103 133 110 195 195 63 85 76 110 123 229 36 91 36 93 37 252 1 88 5
163 10 167 6 4 4 13 -3 22 -12 14 -10 16 7 16 11 0 23 -6 25 -12 4 -10 8 -10
15 1 7 10 14 11 31 2 11 -7 21 -9 21 -6 0 2 25 -11 56 -31 31 -20 83 -43 115
-50 92 -22 169 -32 169 -22 0 4 7 8 16 8 8 0 49 16 90 37 55 26 90 52 128 94
31 34 53 53 54 44 1 -8 2 -26 3 -39 1 -18 7 -23 26 -23 14 0 31 -10 40 -22 8
-13 25 -26 37 -30 16 -6 5 -10 -44 -16 -182 -21 -318 -115 -392 -272 l-30 -63
-77 0 c-98 0 -156 -27 -235 -110 -76 -80 -100 -134 -100 -230 -1 -94 26 -158
92 -223 46 -45 96 -66 202 -83 l25 -4 -25 9 c-16 6 63 9 215 10 273 1 335 -10
335 -60 0 -25 25 -35 55 -21 18 8 25 20 27 49 3 35 5 38 33 38 28 0 30 -3 33
-38 3 -29 9 -41 27 -49 26 -12 55 2 55 26 0 18 14 33 36 40 19 6 21 3 20 -56
l-1 -63 39 3 c58 5 106 -48 55 -61 -22 -6 -21 -16 7 -84 10 -27 19 -33 43 -33
25 0 30 -5 36 -30 8 -37 0 -50 -31 -50 -15 0 -27 -7 -30 -17 -3 -10 -17 -46
-31 -80 -14 -34 -22 -67 -18 -73 4 -7 -2 -14 -15 -17 -13 -3 -23 -16 -27 -34
-3 -15 -14 -36 -24 -45 -18 -16 -19 -16 -19 15 0 26 -3 31 -17 27 -10 -2 -37
-8 -60 -11 l-43 -7 0 -44 c0 -43 0 -44 -34 -44 -34 0 -35 1 -38 43 -3 40 -5
43 -41 52 -33 7 -41 6 -48 -8 -6 -9 -16 -17 -23 -17 -20 0 -46 45 -46 80 0 16
-5 30 -11 30 -6 0 -8 7 -5 16 3 9 2 12 -4 9 -9 -6 -43 59 -64 119 -5 13 -12
17 -30 12 -30 -7 -39 4 -30 39 5 22 11 26 36 23 29 -3 31 0 49 57 10 33 19 61
19 63 0 1 -6 2 -14 2 -20 0 -29 16 -21 41 7 21 22 22 75 8 11 -3 15 5 15 31 0
29 -4 36 -23 38 -13 2 -35 -5 -50 -14 -15 -10 -30 -17 -34 -16 -4 1 -34 -4
-66 -12 -43 -10 -73 -11 -120 -3 -34 5 -62 14 -62 18 0 14 -33 10 -54 -6 -11
-9 -42 -15 -70 -15 -37 0 -47 -3 -36 -10 12 -8 11 -10 -7 -10 -16 0 -23 6 -23
20 0 13 -7 20 -20 20 -13 0 -20 -7 -20 -20 0 -22 -35 -29 -43 -7 -7 18 -42 -6
-41 -28 2 -14 0 -15 -15 -2 -9 8 -26 18 -38 21 -13 4 -23 12 -23 18 0 6 -3 9
-6 5 -3 -3 -41 12 -85 34 -147 74 -289 118 -319 99 -12 -7 -10 -18 12 -72 l25
-63 135 -56 c432 -178 739 -459 952 -870 72 -140 134 -314 167 -469 31 -143
34 -510 6 -665 -41 -224 -143 -468 -293 -698 -94 -144 -299 -347 -449 -445
-128 -84 -313 -178 -437 -221 -122 -42 -310 -80 -464 -93 -356 -31 -787 82
-1109 290 -214 138 -453 365 -565 537 -328 505 -380 1127 -141 1673 46 105
145 274 214 367 92 123 285 309 409 393 137 93 348 201 463 236 50 16 98 36
108 45 9 9 25 44 34 76 9 33 30 82 46 109 32 55 35 48 -54 97 -69 37 -187 143
-241 217 -48 65 -99 166 -124 247 -29 93 -27 323 4 430 90 312 277 499 575
576 149 39 290 44 426 13z m1223 -38 c62 -30 123 -91 149 -148 19 -43 23 -71
24 -148 0 -90 -2 -99 -34 -158 -55 -101 -134 -144 -264 -144 -211 1 -335 154
-298 367 23 129 89 213 190 242 62 17 186 11 233 -11z m-3651 -86 c10 -6 19
-19 19 -28 0 -10 5 -23 11 -29 6 -6 13 -36 15 -66 2 -47 0 -58 -22 -78 -13
-12 -24 -28 -24 -35 0 -20 -32 -33 -58 -23 -15 6 -21 13 -15 21 13 21 14 57 3
77 -11 21 5 71 22 71 4 0 8 9 8 20 0 11 -4 20 -10 20 -11 0 -14 43 -3 53 9 10
31 9 54 -3z m209 -51 c0 -5 4 -8 8 -5 16 9 44 -54 37 -82 -5 -22 -79 -102 -93
-102 -2 0 -1 12 3 27 5 23 4 25 -9 14 -23 -19 -31 43 -13 97 10 30 11 42 3 43
-16 1 26 17 47 18 9 1 17 -4 17 -10z m-369 -41 c16 -18 29 -29 29 -25 0 4 9 3
20 -3 11 -6 20 -20 19 -33 0 -12 -3 -16 -6 -10 -3 9 -11 9 -29 -3 -13 -9 -21
-20 -18 -25 3 -5 -3 -6 -12 -2 -13 5 -15 3 -9 -8 8 -12 6 -12 -8 0 -9 7 -30
11 -45 9 -16 -2 -29 1 -29 6 -1 6 -7 25 -14 43 -12 30 -11 34 11 58 31 33 55
32 91 -7z m4486 4 c6 -4 14 -24 18 -45 4 -20 12 -37 19 -38 6 0 1 -4 -11 -9
-13 -5 -23 -14 -23 -20 0 -15 -30 -12 -32 3 -2 19 -4 30 -13 60 -4 17 -3 33 5
42 14 17 20 18 37 7z m-3666 -33 c33 -23 69 -86 69 -120 0 -61 -66 -129 -126
-129 -39 0 -90 32 -114 72 -68 112 67 252 171 177z m3503 -1 c9 -12 16 -28 16
-35 0 -14 -27 -43 -41 -43 -12 0 -49 37 -49 50 0 13 37 50 49 50 6 0 17 -10
25 -22z m-3771 -3 c-3 -9 -8 -14 -10 -11 -3 3 -2 9 2 15 9 16 15 13 8 -4z
m-26 -112 c-2 -16 -4 -5 -4 22 0 28 2 40 4 28 2 -13 2 -35 0 -50z m2750 35
c-3 -7 -5 -2 -5 12 0 14 2 19 5 13 2 -7 2 -19 0 -25z m-2273 -51 l-6 -22 19
22 19 22 2 -61 c2 -65 27 -122 74 -165 28 -26 98 -39 153 -29 40 8 135 87 135
114 0 11 3 12 14 3 12 -10 18 -7 30 18 9 16 16 44 16 61 0 19 9 40 25 55 61
62 82 -1 36 -108 -40 -94 -64 -217 -58 -302 10 -130 27 -266 42 -327 15 -60
54 -151 67 -156 4 -2 8 -12 8 -23 0 -10 5 -19 10 -19 6 0 10 -5 10 -11 0 -5
-6 -7 -12 -3 -11 6 12 -26 32 -46 3 -3 6 -11 7 -17 3 -14 -1 -15 -104 -17 -68
-1 -75 -3 -105 -34 -29 -29 -33 -39 -35 -95 -1 -51 2 -66 20 -87 58 -67 107
-77 152 -30 16 17 35 30 42 30 7 0 13 9 13 21 0 11 4 18 9 15 15 -10 34 23 36
62 2 20 8 38 14 40 16 5 14 29 -4 36 -8 3 -15 9 -15 14 0 5 7 9 15 9 8 0 15
-4 15 -9 0 -5 5 -6 12 -2 7 4 8 3 4 -4 -4 -7 -1 -12 8 -12 9 0 16 -5 16 -12 0
-6 2 -9 5 -6 3 3 24 -13 48 -34 23 -22 75 -61 114 -86 40 -26 73 -50 73 -53 0
-4 -29 -12 -64 -18 -74 -13 -247 -81 -386 -150 -93 -47 -230 -127 -240 -140
-3 -4 -34 -29 -70 -56 -179 -137 -349 -332 -490 -562 -24 -39 -47 -70 -51 -68
-8 6 -35 -55 -31 -71 1 -7 -7 -34 -19 -60 -74 -171 -135 -403 -165 -633 -5
-43 -14 -53 -14 -18 0 15 -4 27 -9 27 -5 0 -7 -9 -4 -20 4 -13 0 -20 -10 -20
-15 0 -27 -40 -27 -91 0 -22 -5 -29 -20 -29 -17 0 -20 7 -20 39 0 30 -4 40
-20 44 -11 3 -20 1 -20 -4 0 -5 5 -9 10 -9 6 0 10 -13 10 -29 0 -17 -4 -33
-10 -36 -5 -3 -10 3 -10 14 0 11 -4 22 -9 25 -4 3 -7 22 -5 43 2 25 0 32 -7
23 -5 -8 -9 -13 -10 -10 -1 9 -7 35 -10 50 -2 8 -11 20 -19 27 -8 7 -11 13 -7
13 5 0 1 7 -7 16 -9 8 -13 20 -10 26 4 7 2 8 -4 4 -6 -4 -34 17 -64 48 -82 84
-167 116 -304 116 -54 0 -78 -6 -137 -34 -72 -34 -147 -96 -181 -149 -17 -28
-18 -28 -37 -11 -27 24 -119 36 -138 17 -9 -10 -25 -12 -52 -8 -21 4 -47 4
-59 0 -23 -7 -27 -35 -5 -35 10 0 15 -10 15 -27 0 -42 14 -57 43 -49 15 3 29
1 33 -5 4 -7 31 -9 75 -6 77 5 74 9 63 -75 l-6 -44 -62 4 c-39 2 -71 11 -88
23 -16 11 -28 15 -28 9 0 -5 -5 -10 -12 -10 -6 0 -8 3 -5 7 12 11 -25 43 -49
43 -12 0 -34 -4 -48 -10 -21 -7 -26 -16 -26 -42 0 -44 10 -79 21 -73 16 11 59
-7 59 -24 0 -21 -43 -46 -64 -38 -11 5 -17 -3 -22 -31 -4 -20 -11 -42 -16 -49
-13 -17 -1 -33 19 -26 9 4 14 2 11 -3 -4 -5 11 -10 33 -12 28 -2 44 3 59 18
16 16 20 17 20 4 0 -8 5 -12 10 -9 6 3 24 -4 41 -16 27 -19 30 -26 25 -58 -3
-20 -2 -52 2 -71 l8 -35 7 33 c8 39 23 43 21 5 -1 -16 -3 -34 -3 -40 -1 -16
-71 -17 -71 -2 0 8 -4 8 -15 -1 -12 -10 -15 -4 -21 40 -4 31 -13 54 -21 57
-23 9 -66 8 -87 -2 -14 -6 -17 -5 -12 3 5 8 -1 12 -18 12 -14 0 -26 -5 -26
-11 0 -6 -7 -9 -15 -5 -9 3 -15 0 -15 -9 0 -18 -30 -19 -65 -3 l-25 11 0 208
c0 114 3 214 6 223 3 9 17 16 30 16 32 0 54 36 54 87 0 24 3 43 6 43 3 0 25
-11 50 -25 l46 -25 66 44 c37 25 91 70 121 100 l55 55 -19 34 c-15 28 -16 39
-6 68 22 69 91 33 91 -47 0 -46 55 -86 75 -54 3 6 15 10 26 10 13 0 19 7 19
21 0 11 5 17 10 14 30 -19 -13 57 -50 89 -17 14 -30 31 -29 38 1 7 1 63 0 125
l-1 112 -57 12 c-87 18 -104 52 -58 108 l26 30 -32 63 c-42 81 -50 91 -130
144 -70 46 -98 52 -139 29 -14 -8 -30 -14 -36 -15 -14 0 -34 44 -34 73 0 40
-18 47 -124 47 -78 0 -103 -3 -118 -17 -10 -9 -18 -21 -18 -27 0 -6 -11 -24
-23 -40 -22 -27 -29 -29 -96 -31 -51 -1 -68 1 -56 8 10 5 35 9 58 9 29 -1 37
2 29 10 -14 14 2 38 24 38 8 0 14 10 14 21 0 16 5 20 20 16 15 -4 20 0 20 15
0 25 26 53 33 35 3 -7 6 -5 6 6 1 22 23 22 64 0 18 -9 46 -16 62 -14 35 3 98
58 90 79 -2 7 -1 10 4 7 5 -3 11 5 13 17 4 30 22 28 28 -3 3 -13 15 -43 27
-65 12 -23 20 -44 18 -46 -3 -3 3 -5 13 -6 43 -5 68 -1 78 13 6 8 14 13 17 10
4 -3 5 -2 2 1 -2 4 0 15 6 25 7 13 6 26 -3 42 -12 22 -19 149 -7 142 3 -2 6
15 7 38 1 23 7 44 12 45 7 3 6 10 -2 20 -10 12 -10 16 0 19 19 7 14 23 -8 23
-22 0 -29 39 -7 41 6 0 2 5 -10 11 -12 6 -24 17 -27 24 -7 18 4 17 28 -1 13
-10 43 -15 86 -15 66 0 66 0 83 -35 l17 -36 -60 -71 c-33 -40 -60 -81 -60 -93
0 -12 15 -43 32 -70 18 -27 33 -63 34 -79 2 -70 4 -76 24 -76 13 0 20 -7 20
-18 0 -18 31 -62 43 -62 10 0 14 49 4 53 -6 2 -3 6 6 10 11 4 29 -3 50 -21 52
-45 85 -62 103 -55 11 4 15 3 10 -5 -8 -13 -9 -719 -1 -732 5 -9 70 -4 87 6 9
6 2 716 -8 769 -5 28 -1 33 34 53 30 17 42 19 45 10 4 -10 7 -10 15 0 15 22
21 -7 15 -84 -3 -38 -6 -200 -7 -360 -1 -234 2 -296 13 -317 16 -30 36 -34 64
-12 18 13 18 30 13 307 -3 161 -8 325 -10 363 -2 39 -2 59 0 45 22 -131 39
-162 101 -175 30 -6 32 -8 20 -28 -9 -16 -12 -94 -12 -287 l0 -264 39 -8 c21
-5 40 -7 42 -6 1 2 4 133 6 291 l3 288 45 -3 45 -3 0 -328 0 -329 24 -19 c13
-10 31 -19 41 -19 15 0 18 15 23 113 10 171 8 532 -3 561 -9 24 -7 26 18 26
28 0 75 39 84 69 2 8 2 -141 0 -332 -4 -308 -3 -347 11 -347 8 0 17 -5 19 -11
8 -24 46 10 52 46 4 20 6 208 5 419 -1 387 0 406 36 436 13 11 21 6 54 -31 21
-24 59 -55 84 -68 68 -37 108 -21 205 77 79 82 152 181 152 207 0 29 -29 72
-76 114 -39 34 -45 45 -40 66 12 47 40 65 102 65 65 0 113 24 134 67 10 19 15
78 18 183 3 149 3 156 -20 189 -33 50 -75 70 -159 79 -71 7 -74 8 -82 38 -8
29 -4 37 57 113 36 45 66 90 66 99 0 10 -20 47 -44 82 -25 35 -42 68 -40 72 3
5 1 7 -4 6 -11 -3 -62 48 -62 63 0 6 -4 8 -9 5 -4 -3 -17 4 -27 15 -75 83
-146 74 -260 -33 l-31 -29 -52 26 -51 27 0 82 c1 60 3 76 11 64 5 -10 17 -18
24 -18 8 0 15 -6 15 -14 0 -19 70 -32 81 -14 7 11 9 10 9 -1 0 -9 6 -7 19 7
12 15 30 22 55 22 20 0 36 5 36 10 0 6 9 10 20 10 11 0 20 5 20 10 0 6 -5 10
-12 10 -6 0 -9 2 -6 5 3 3 13 3 22 -1 11 -4 16 -18 16 -44 0 -42 20 -70 50
-70 26 0 40 30 40 87 0 45 2 49 31 60 26 10 29 10 19 -3 -7 -8 -19 -14 -26
-14 -23 0 -16 -51 9 -72 19 -17 22 -18 25 -4 2 11 14 16 38 16 27 0 34 -4 34
-20 0 -17 7 -20 40 -20 32 0 40 4 40 18 0 10 9 24 20 32 11 8 20 24 20 37 0
12 4 24 9 27 11 7 -16 66 -30 66 -5 0 -8 5 -6 11 1 7 -12 12 -33 12 -20 0 -36
-4 -36 -11 -3 -22 -4 -23 -15 -17 -7 5 -5 12 4 23 19 22 37 86 37 137 1 32 3
37 11 22 6 -9 7 -27 3 -40z m271 22 c46 -40 48 -84 7 -131 -40 -44 -84 -43
-125 2 -24 27 -28 39 -23 69 6 40 54 91 86 91 11 0 35 -14 55 -31z m3145 5 c0
0 -8 -8 -18 -17 -16 -15 -18 -15 -18 1 0 10 8 18 18 18 10 0 18 -1 18 -2z
m-4638 -41 c9 -3 22 -20 28 -38 14 -42 -2 -78 -44 -99 -30 -16 -31 -15 -58 16
-16 18 -28 42 -28 53 0 29 51 86 70 79 8 -4 23 -8 32 -11z m3463 -4 c-5 -16
-4 -19 5 -14 9 6 11 4 5 -5 -5 -9 -2 -10 13 -6 18 6 22 1 31 -30 6 -20 7 -42
4 -47 -4 -6 -1 -7 6 -3 9 6 11 -1 5 -31 -3 -21 -9 -42 -12 -47 -3 -5 -19 31
-37 80 -18 49 -36 97 -40 107 -5 12 -2 17 10 17 12 0 15 -5 10 -21z m1304 -45
c12 -15 21 -38 21 -51 0 -28 -41 -73 -67 -73 -45 0 -82 56 -68 101 7 21 50 48
77 49 9 0 26 -12 37 -26z m-212 -49 c1 -31 7 -64 12 -74 9 -16 7 -17 -15 -13
-17 3 -29 -2 -39 -14 -11 -16 -16 -17 -27 -6 -11 11 -10 12 2 7 13 -4 15 2 13
36 -2 45 -14 65 -44 74 -20 7 -19 7 2 26 13 11 37 19 58 19 l36 0 2 -55z
m-4009 -34 c18 -11 22 -12 -98 9 l-55 9 68 -4 c37 -2 75 -9 85 -14z m-315 2
c-7 -2 -19 -2 -25 0 -7 3 -2 5 12 5 14 0 19 -2 13 -5z m5050 -23 c22 -23 27
-35 21 -52 -4 -13 -7 -48 -6 -78 2 -73 -10 -116 -31 -112 -10 2 -17 -2 -17 -8
0 -5 5 -10 10 -10 6 0 10 -5 10 -11 0 -8 -5 -8 -15 1 -8 7 -15 19 -15 26 0 8
-7 14 -16 14 -11 0 -14 5 -9 18 4 9 10 26 13 37 3 11 10 23 15 26 5 4 -9 10
-31 14 -35 6 -42 11 -47 36 -4 16 -11 29 -16 29 -18 0 -9 23 24 60 40 48 72
51 110 10z m-5140 -22 c-24 -25 -27 -37 -31 -121 -2 -50 -7 -95 -11 -99 -9
-11 -3 119 10 189 10 57 13 62 35 61 l24 -2 -27 -28z m-469 -4 c19 -18 21 -75
4 -92 -31 -31 -98 1 -98 48 0 49 61 78 94 44z m1441 6 c3 -5 1 -10 -4 -10 -6
0 -11 5 -11 10 0 6 2 10 4 10 3 0 8 -4 11 -10z m-38 -46 c-3 -3 -12 -4 -19 -1
-8 3 -5 6 6 6 11 1 17 -2 13 -5z m-584 -99 c4 -27 5 -83 3 -122 l-6 -73 28 -6
c62 -14 100 -28 161 -61 l64 -34 82 81 81 81 72 -75 c40 -40 72 -82 72 -91 0
-10 -34 -51 -76 -92 l-76 -74 30 -57 c17 -31 38 -80 47 -109 20 -60 31 -65
140 -62 40 1 77 -1 84 -5 7 -5 11 -47 11 -122 0 -63 -1 -115 -2 -115 -2 -1
-52 -4 -111 -8 l-108 -6 -24 -71 c-13 -39 -33 -87 -45 -106 l-20 -35 79 -78
c62 -60 78 -82 72 -93 -5 -9 -40 -47 -77 -84 l-68 -68 -79 82 -78 82 -27 -17
c-53 -34 -138 -75 -178 -86 -40 -11 -41 -12 -48 -64 -3 -28 -6 -72 -6 -97 0
-70 -2 -71 -126 -68 l-109 3 -3 110 -3 111 -74 23 c-40 12 -91 36 -112 51 -21
16 -45 30 -53 30 -8 0 -52 -37 -98 -82 l-83 -83 -70 72 c-38 40 -69 81 -69 92
0 10 33 50 74 88 l73 70 -29 54 c-15 30 -38 80 -50 112 l-21 57 -103 0 -102 0
-7 31 c-4 18 -4 74 0 125 7 93 7 93 36 99 17 4 62 5 101 3 l70 -3 22 61 c12
34 37 86 54 117 l31 56 -32 20 c-18 11 -54 43 -81 70 -60 64 -58 72 33 168
l68 72 84 -85 c46 -46 87 -84 91 -84 5 0 26 12 48 26 22 15 76 39 120 53 44
15 77 30 74 34 -3 3 -3 55 1 116 l7 110 52 4 c28 2 80 3 116 3 l65 -1 8 -50z
m4897 51 c0 -2 -7 -7 -16 -10 -8 -3 -12 -2 -9 4 6 10 25 14 25 6z m-5535 -45
c3 -5 -9 -9 -27 -8 -18 0 -42 -3 -53 -7 -12 -4 -10 -1 5 8 28 17 66 21 75 7z
m-159 -80 c-28 -25 -52 -49 -54 -53 -2 -5 -8 -8 -14 -8 -6 0 -5 7 3 16 8 9 14
24 14 33 0 9 9 16 20 16 11 1 19 6 18 13 -2 7 3 11 10 10 6 -2 11 2 10 8 -1 6
8 12 21 12 19 0 16 -7 -28 -47z m-213 7 c8 -13 13 -36 11 -53 -1 -16 -3 -38
-3 -47 -1 -13 -9 -18 -30 -18 -17 0 -33 5 -36 10 -4 6 -11 8 -16 5 -5 -4 -9
18 -9 49 0 49 3 56 19 56 11 0 23 5 26 10 10 16 24 12 38 -12z m6044 -9 c90
-43 105 -157 29 -217 -42 -32 -79 -36 -125 -13 -95 49 -98 176 -6 232 38 24
49 24 102 -2z m-5450 -15 c-3 -3 -12 -4 -19 -1 -8 3 -5 6 6 6 11 1 17 -2 13
-5z m4411 -69 c85 -46 145 -130 173 -239 6 -25 13 -46 15 -46 1 0 33 7 71 16
111 26 189 6 268 -67 88 -81 121 -184 86 -264 -16 -37 -29 -49 -63 -64 -40
-18 -84 -19 -683 -19 -627 -1 -640 0 -673 20 -45 28 -72 84 -72 152 0 67 9 93
51 140 43 49 100 77 169 83 73 7 123 -9 181 -58 26 -21 49 -35 53 -32 13 13 5
52 -19 97 -31 58 -31 84 -4 139 37 73 77 115 142 147 59 30 67 31 157 28 82
-3 102 -8 148 -33z m-5123 -156 c5 -23 11 -29 23 -24 9 3 13 3 9 -1 -4 -4 1
-13 11 -20 16 -12 16 -14 -3 -41 -11 -15 -27 -40 -34 -55 -12 -23 -21 -28 -51
-28 -20 0 -41 -5 -48 -12 -9 -9 -12 -7 -12 10 0 12 -4 22 -10 22 -5 0 -10 25
-10 55 0 50 2 55 26 61 22 6 25 11 22 40 -2 18 0 30 4 28 4 -3 16 -1 25 5 23
12 40 -1 48 -40z m5435 41 c0 -5 -6 -10 -14 -10 -8 0 -18 5 -21 10 -3 6 3 10
14 10 12 0 21 -4 21 -10z m57 4 c-3 -3 -12 -4 -19 -1 -8 3 -5 6 6 6 11 1 17
-2 13 -5z m223 -44 c0 -16 -5 -30 -11 -30 -5 0 -7 -4 -4 -10 11 -17 -7 -11
-40 15 -18 13 -35 21 -39 18 -3 -4 -6 -1 -6 5 0 7 7 12 15 12 8 0 15 5 15 10
0 6 16 10 35 10 32 0 35 -2 35 -30z m-5449 -212 c-4 -12 -14 -24 -20 -26 -8
-3 -7 5 4 22 21 32 27 33 16 4z m6152 -58 c5 -20 -13 -64 -41 -99 l-19 -24
-23 42 c-13 22 -27 41 -32 41 -18 0 -6 38 23 73 l32 38 27 -26 c16 -15 30 -35
33 -45z m-6557 32 c-3 -5 8 -7 23 -4 56 8 85 -82 37 -113 -22 -15 -27 -15 -53
-1 -56 30 -56 31 -42 57 7 13 14 29 15 34 0 6 2 16 2 23 1 6 7 12 13 12 5 0 8
-4 5 -8z m6980 -79 c21 -138 6 -169 -78 -159 l-47 5 -281 -280 c-311 -310
-294 -299 -367 -243 -17 13 -38 24 -46 24 -7 0 -165 -153 -351 -340 -281 -283
-342 -340 -365 -340 -63 0 -87 84 -37 127 15 12 38 23 52 23 19 0 73 46 220
187 108 103 202 196 209 206 20 29 247 257 255 257 4 0 35 -18 70 -41 l63 -41
116 115 c188 185 323 313 373 353 46 38 47 39 41 86 -9 74 27 106 119 107 l47
1 7 -47z m-6811 -180 c0 -125 4 -176 14 -198 26 -54 19 -80 -15 -57 -27 18
-32 53 -31 215 1 92 5 167 8 167 4 0 9 9 12 20 3 11 7 20 9 20 1 0 3 -75 3
-167z m6922 105 c-2 -13 -4 -3 -4 22 0 25 2 35 4 23 2 -13 2 -33 0 -45z
m-7111 -68 c-6 -46 -5 -50 14 -50 13 0 20 -7 20 -18 0 -11 9 -27 20 -37 l20
-18 -21 -23 c-12 -13 -26 -21 -30 -18 -15 9 -10 -24 6 -40 9 -8 36 -30 60 -47
37 -27 45 -38 45 -64 0 -45 -39 -99 -73 -103 -16 -2 -25 -8 -21 -14 4 -7 0 -7
-12 0 -11 6 -69 10 -129 9 -96 0 -104 -2 -67 -10 39 -9 43 -12 37 -35 -9 -38
-30 -52 -76 -52 -48 0 -79 22 -79 56 0 16 7 24 23 27 14 3 9 5 -14 6 -92 3
-141 51 -119 115 17 52 42 69 92 64 24 -3 49 -6 56 -9 10 -3 14 7 16 32 3 45
39 97 72 105 13 3 24 10 24 14 0 4 11 5 24 3 13 -3 32 0 43 7 16 10 16 11 1 6
-10 -3 -18 -1 -18 4 0 6 -9 10 -20 10 -11 0 -20 7 -20 15 0 8 5 15 10 15 6 0
10 9 10 20 0 11 5 20 11 20 5 0 7 -4 4 -10 -4 -6 9 -10 32 -9 21 0 32 3 26 6
-7 2 -13 16 -13 29 0 17 6 24 20 24 11 0 20 5 20 10 0 6 3 10 6 10 4 0 4 -22
0 -50z m6604 -45 c-41 -41 -78 -75 -81 -75 -12 0 -2 54 10 58 6 2 9 7 6 12 -3
4 11 11 30 14 19 4 35 11 35 16 0 6 6 10 14 10 9 0 12 7 9 18 -3 13 2 18 24
20 25 2 22 -4 -47 -73z m-4032 39 c49 -34 12 -94 -57 -94 -38 0 -71 24 -71 51
0 24 47 59 79 59 15 0 37 -7 49 -16z m4528 -36 c-6 -24 -18 -49 -28 -56 -9 -7
-16 -18 -14 -25 1 -6 1 -9 -1 -4 -11 18 -18 3 -19 -41 -2 -72 -14 -121 -33
-126 -28 -9 -158 -4 -133 5 12 5 22 13 22 18 0 5 9 13 21 16 16 5 20 13 16 31
-3 18 3 30 19 43 13 10 24 26 24 36 0 9 5 13 10 10 6 -3 10 -1 10 4 0 6 8 11
18 11 24 0 57 36 77 83 20 49 25 47 11 -5z m-1115 -52 c-8 -10 -8 -22 -1 -40
5 -15 10 -43 10 -62 0 -28 4 -34 21 -34 19 0 21 -4 16 -40 -3 -23 -1 -40 5
-40 5 0 7 4 4 9 -4 5 2 8 11 6 10 -1 25 2 33 8 8 6 -4 -7 -27 -29 -23 -21 -64
-73 -91 -114 -57 -86 -85 -115 -103 -104 -9 5 -10 2 -6 -8 6 -18 -25 -52 -37
-41 -4 5 -6 2 -4 -6 1 -7 -2 -15 -8 -18 -6 -2 -10 6 -9 19 2 13 8 22 15 20 7
-2 16 2 20 8 9 14 0 70 -11 70 -5 0 -9 9 -9 19 0 15 8 21 33 23 28 3 33 7 37
38 4 27 10 36 28 38 13 2 25 9 28 16 3 7 16 11 33 8 16 -2 32 1 36 9 5 7 4 10
-1 6 -5 -3 -18 1 -29 9 -10 8 -15 14 -9 15 5 1 -2 5 -16 9 -24 8 -23 8 8 9 25
1 32 5 32 21 0 19 -24 27 -55 20 -5 -1 -28 -3 -51 -4 -24 0 -48 -8 -58 -18
-10 -10 -14 -18 -9 -19 4 0 -1 -4 -12 -9 -13 -5 -28 -3 -42 6 -12 8 -29 14
-38 14 -8 0 -15 4 -15 9 0 5 -9 7 -20 4 -25 -7 -16 -23 13 -24 20 -1 20 -2 -3
-8 -14 -4 -26 -4 -28 0 -2 4 -13 5 -25 3 -12 -2 -16 -2 -9 2 6 3 12 19 12 35
0 24 4 29 24 29 13 0 27 -6 30 -12 4 -7 4 4 2 25 -4 32 -3 37 9 27 9 -7 14 -7
17 -1 1 6 30 14 63 17 73 8 98 20 150 74 22 22 41 36 43 30 2 -6 -1 -17 -7
-24z m-6147 -12 c-11 -7 -23 -17 -29 -22 -5 -5 -14 -4 -21 2 -9 8 -5 14 15 22
37 15 58 14 35 -2z m6581 -109 c-104 -97 -132 -116 -145 -96 -4 8 -12 11 -18
7 -6 -3 -17 -3 -26 0 -14 5 -14 9 0 36 8 16 14 41 12 56 -3 24 1 27 25 27 16
1 32 7 37 14 5 9 18 12 41 7 23 -4 51 1 84 14 28 10 57 19 65 19 8 0 -25 -37
-75 -84z m318 -52 c-4 -10 -11 -22 -17 -26 -6 -5 -1 -5 12 -2 13 4 22 2 22 -4
0 -6 -7 -11 -15 -11 -22 0 -25 -2 -63 -35 l-34 -30 2 -600 c1 -330 2 -612 1
-627 -1 -24 -5 -28 -30 -28 l-30 0 2 444 c1 244 -1 448 -6 452 -22 22 -291 18
-345 -6 -20 -9 -23 -15 -18 -53 3 -23 8 -223 12 -444 l6 -403 -36 0 -36 0 0
336 0 336 -160 -4 c-111 -3 -164 -8 -172 -16 -10 -10 -13 -87 -12 -328 l0
-314 -33 0 -33 0 0 187 0 186 -142 -6 c-88 -3 -131 -2 -113 4 17 4 53 32 81
61 243 250 265 270 280 257 12 -10 13 -9 8 4 -4 12 -1 14 16 10 26 -7 61 23
53 45 -5 11 -2 14 8 10 8 -3 22 -9 32 -13 13 -5 17 -2 17 14 0 12 -4 21 -10
21 -5 0 -7 7 -4 15 3 8 11 13 17 12 6 -1 16 9 24 23 9 19 13 20 13 8 0 -13 8
-18 30 -18 27 0 30 3 30 30 0 30 23 43 33 18 3 -7 6 -3 6 10 1 15 7 22 20 22
22 0 36 15 46 50 11 34 17 37 87 34 34 -2 70 2 80 7 10 5 18 6 18 1 0 -13 47
-32 81 -32 17 0 50 5 75 11 39 10 44 15 44 39 0 15 3 42 6 59 6 27 4 31 -15
31 -11 0 -21 5 -21 10 0 6 7 10 15 10 9 0 15 9 15 21 0 18 -4 20 -25 15 -24
-6 -35 7 -15 19 6 3 10 15 10 26 0 12 7 19 20 19 11 0 20 5 20 11 0 5 -6 7
-12 4 -7 -4 -4 1 6 9 11 9 24 16 30 16 5 0 7 3 4 6 -7 7 59 74 73 74 6 0 7 5
3 12 -4 6 -3 8 3 5 6 -4 13 0 17 8 3 8 10 15 15 15 6 0 7 -8 4 -17z m-818 -33
c3 -6 -1 -7 -9 -4 -18 7 -21 14 -7 14 6 0 13 -4 16 -10z m-260 -39 c0 -17 7
-29 21 -35 20 -9 19 -11 -16 -43 -40 -35 -69 -43 -71 -18 -3 28 -4 33 -11 41
-12 11 -10 26 2 19 7 -4 9 2 5 18 -7 28 7 41 47 43 19 1 24 -3 23 -25z m1253
-621 c2 -300 0 -573 -3 -607 l-7 -63 -64 0 -64 0 -2 533 c-1 292 -2 562 -3
600 l0 67 35 6 c19 3 42 7 50 9 8 2 24 2 35 2 20 -2 20 -10 23 -547z m-1124
522 c3 -5 -1 -9 -9 -9 -8 0 -12 4 -9 9 3 4 7 8 9 8 2 0 6 -4 9 -8z m-5804
-112 c11 -11 20 -31 20 -45 0 -29 -32 -65 -58 -65 -22 0 -59 25 -72 50 -8 15
-4 25 16 49 30 36 65 40 94 11z m210 -57 c0 -23 -26 -43 -54 -43 -12 0 -16 10
-16 35 0 34 1 36 35 33 29 -2 35 -6 35 -25z m6837 -90 c-2 -21 -4 -4 -4 37 0
41 2 58 4 38 2 -21 2 -55 0 -75z m-7364 90 c-7 -2 -19 -2 -25 0 -7 3 -2 5 12
5 14 0 19 -2 13 -5z m6120 -16 c7 4 6 -1 -2 -10 -19 -24 -30 -21 -23 5 3 12 7
17 10 10 2 -7 9 -9 15 -5z m-71 -46 c-4 -11 -1 -11 19 -1 13 7 -30 -42 -96
-109 -100 -102 -132 -128 -192 -157 -107 -51 -173 -133 -173 -213 0 -35 7 -48
44 -86 26 -28 52 -45 66 -45 l23 0 -9 -177 c-10 -201 -10 -290 -2 -298 3 -3
380 -6 839 -7 459 -1 819 -3 800 -5 -31 -4 -33 -6 -27 -36 12 -56 9 -119 -5
-128 -26 -17 -49 -10 -49 14 0 44 -49 65 -69 30 -8 -14 -10 -8 -11 30 l0 47
-67 1 c-38 1 -86 2 -108 4 -37 3 -38 2 -12 -7 25 -9 27 -14 27 -64 0 -47 2
-54 20 -54 13 0 20 -7 20 -20 0 -15 7 -20 28 -21 15 0 21 -3 15 -6 -7 -2 -13
-9 -13 -14 0 -12 62 1 82 18 33 29 108 -5 108 -48 0 -24 -52 -79 -74 -79 -9 0
-22 15 -30 33 -12 29 -14 30 -21 12 -11 -32 -14 -39 -24 -55 -5 -8 -12 -24
-16 -35 -6 -19 -8 -18 -26 7 -16 22 -131 125 -174 156 -23 16 -123 62 -136 62
-11 0 -11 2 -2 8 8 5 -2 8 -23 8 -24 0 -41 6 -50 19 -8 10 -14 16 -14 12 0 -3
-19 1 -42 9 -30 11 -81 15 -169 15 -127 0 -152 -4 -179 -27 -8 -6 -45 -21 -82
-32 -140 -43 -222 -102 -389 -278 -30 -32 -58 -67 -62 -76 -3 -10 -11 -18 -17
-18 -5 0 -10 -9 -10 -20 0 -17 -7 -20 -40 -20 -22 0 -40 3 -40 8 0 4 -2 120
-4 257 -2 138 -9 286 -15 330 -25 162 -83 352 -148 483 -22 45 -24 55 -12 64
11 8 11 9 -2 5 -13 -4 -32 20 -80 101 -34 59 -91 143 -126 187 -82 104 -83
131 -2 57 34 -32 69 -58 78 -58 9 -1 22 -2 29 -3 6 -1 12 -10 12 -21 0 -11 7
-20 15 -20 8 0 15 -7 15 -16 0 -8 7 -22 15 -30 8 -9 15 -12 15 -7 0 4 12 9 28
9 59 4 127 25 152 49 26 25 116 50 144 39 24 -9 45 36 48 104 4 98 45 132 154
129 39 -2 50 -5 46 -16z m338 -91 c0 -5 -5 -10 -11 -10 -5 0 -7 5 -4 10 3 6 8
10 11 10 2 0 4 -4 4 -10z m1155 -60 c8 -26 1 -37 -30 -42 -22 -5 -25 -2 -25
22 0 15 3 30 7 33 13 14 42 6 48 -13z m-745 -384 c0 -200 -3 -378 -6 -395 -6
-30 -9 -31 -55 -31 l-49 0 0 173 c0 94 -3 269 -7 389 l-6 216 24 5 c13 2 41 5
62 6 l37 1 0 -364z m-6450 317 c0 -21 4 -43 8 -50 14 -21 146 -66 210 -70 56
-4 63 -7 68 -30 4 -15 0 -39 -10 -60 -16 -34 -16 -38 3 -87 12 -28 26 -71 31
-94 10 -38 14 -43 33 -39 85 20 90 20 84 2 -4 -9 -7 -39 -7 -66 l0 -49 -49 0
-48 0 -22 -59 c-12 -32 -28 -64 -36 -71 -13 -10 -12 -17 7 -49 24 -43 20 -62
-18 -87 -24 -17 -27 -17 -36 -1 -12 23 -54 21 -94 -4 -19 -11 -55 -26 -81 -32
l-48 -12 -3 -52 c-3 -46 -6 -54 -27 -59 -43 -11 -60 -1 -63 36 -5 73 -9 77
-64 90 -29 7 -71 22 -93 33 -34 17 -44 18 -73 7 -29 -10 -36 -9 -52 5 -28 25
-33 50 -16 82 13 26 13 31 -5 53 -10 14 -26 46 -35 73 l-16 47 -48 0 c-45 0
-48 1 -54 31 -3 17 -6 44 -6 60 0 28 1 29 55 29 43 0 55 3 55 16 0 8 11 44 26
79 23 60 24 66 9 88 -11 18 -14 36 -9 66 9 55 26 68 68 53 45 -17 57 -15 97
12 20 14 58 31 85 39 49 14 49 15 48 55 l-1 41 46 4 c25 2 54 4 64 5 13 2 17
-6 17 -35z m7057 -13 c5 -26 10 -30 37 -30 24 0 35 -7 48 -31 10 -17 13 -27 5
-23 -8 5 -8 2 1 -7 11 -12 15 -11 26 4 22 29 73 22 112 -17 31 -31 33 -37 23
-60 -12 -26 -33 -34 -43 -17 -7 10 -56 2 -75 -13 -11 -8 -13 -8 -8 1 5 8 -2
13 -20 15 -25 3 -28 7 -25 35 2 17 -1 34 -7 37 -13 8 -18 -1 -26 -47 -6 -29
-4 -37 8 -37 19 0 31 -58 16 -76 -11 -13 -8 -17 9 -11 4 1 6 5 5 10 -2 4 2 7
7 7 6 0 10 -4 10 -10 0 -5 7 -7 15 -4 12 5 13 9 4 21 -10 12 -5 13 32 7 74
-11 112 -58 82 -102 -9 -15 -17 -30 -15 -34 1 -4 -5 -5 -12 -2 -11 4 -13 -3
-9 -38 7 -51 11 -58 23 -38 6 8 10 11 10 5 1 -5 3 -31 5 -57 8 -89 -65 -131
-128 -73 -33 32 -33 36 -1 74 14 17 22 32 17 33 -4 0 -12 2 -18 3 -5 2 -18 3
-27 4 -10 0 -18 5 -18 10 0 15 30 22 50 11 16 -8 18 -8 14 5 -4 8 -12 15 -20
15 -8 0 -14 4 -14 9 0 6 8 9 18 9 9 -1 31 2 47 7 l30 8 -34 8 c-24 5 -38 3
-48 -7 -21 -21 -47 -18 -38 4 4 9 8 22 8 29 0 7 4 10 8 7 5 -2 5 -12 2 -22 -5
-14 -3 -15 7 -5 11 10 11 16 -3 31 -9 10 -17 24 -17 30 0 6 -9 17 -20 25 -11
8 -17 17 -13 20 3 4 -10 7 -30 7 -28 0 -37 4 -37 18 -1 9 -3 77 -6 150 -5 117
-4 132 10 132 10 0 19 -12 23 -30z m-1025 -292 c0 -62 2 -153 4 -203 1 -49 0
-123 -3 -162 l-6 -73 -47 0 c-45 0 -48 2 -54 31 -3 17 -6 141 -6 275 l0 244
55 0 55 0 2 -112z m-6571 52 c41 -22 10 -90 -41 -90 -22 0 -26 4 -24 23 1 12
3 34 3 50 1 30 25 36 62 17z m7570 -130 c6 25 6 25 8 -3 0 -16 5 -26 11 -22 6
4 10 -16 10 -52 0 -41 -3 -54 -10 -43 -8 12 -10 12 -11 -5 -1 -17 -2 -16 -9 5
-5 16 -8 -8 -8 -70 0 -62 3 -86 8 -70 8 24 8 24 9 3 1 -13 5 -23 10 -23 9 0
35 -54 31 -66 -1 -4 4 -11 12 -16 8 -5 -3 -8 -32 -6 l-45 3 -1 245 c0 135 2
211 5 170 4 -48 8 -66 12 -50z m86 18 c-3 -8 -6 -5 -6 6 -1 11 2 17 5 13 3 -3
4 -12 1 -19z m-1493 -140 c3 -13 6 -72 6 -131 l0 -108 -62 3 -63 3 -3 122 -3
122 38 4 c79 8 80 8 87 -15z m1512 -35 c-10 -10 -19 5 -10 18 6 11 8 11 12 0
2 -7 1 -15 -2 -18z m-39 2 c0 -8 -9 -15 -19 -15 -10 0 -18 7 -18 15 0 8 8 15
18 15 10 0 19 -7 19 -15z m-7626 -97 c6 -11 9 -29 6 -39 -3 -10 -1 -17 4 -13
15 9 10 -16 -6 -32 -8 -9 -15 -11 -15 -5 0 6 -9 11 -20 11 -16 0 -20 7 -20 34
0 26 -5 36 -20 41 -32 10 -23 21 20 22 31 2 42 -3 51 -19z m1536 -259 c89 -53
135 -131 148 -247 9 -73 -9 -121 -98 -269 -43 -70 -73 -135 -84 -177 -16 -61
-20 -66 -45 -66 -20 0 -28 5 -28 18 0 55 78 258 135 352 63 102 56 195 -17
267 -97 95 -207 98 -306 8 -80 -72 -80 -138 2 -295 50 -98 105 -242 121 -317
6 -31 5 -33 -23 -33 -31 0 -42 14 -42 54 0 26 -69 171 -126 266 -58 95 -64
114 -64 188 1 220 241 361 427 251z m-1199 -62 c6 -7 12 -30 14 -51 1 -20 6
-40 10 -42 16 -10 -3 -24 -30 -23 -17 1 -21 3 -9 6 18 5 24 23 7 23 -5 0 -11
8 -11 18 -1 16 -2 16 -6 0 -7 -28 -23 -21 -23 11 0 16 7 34 15 41 13 11 13 15
3 21 -10 7 -9 9 3 9 9 0 21 -6 27 -13z m-328 -11 c0 -8 -4 -18 -10 -21 -5 -3
-10 3 -10 14 0 12 5 21 10 21 6 0 10 -6 10 -14z m1007 -58 c-3 -8 -6 -5 -6 6
-1 11 2 17 5 13 3 -3 4 -12 1 -19z m5763 -92 l0 -53 48 -6 c27 -3 74 -17 106
-31 72 -32 80 -32 105 0 24 31 42 24 95 -37 29 -34 33 -44 24 -59 -16 -25 3
-47 53 -60 23 -6 46 -21 56 -36 16 -24 15 -28 -2 -60 -17 -31 -17 -36 -2 -76
9 -24 21 -65 27 -93 21 -101 16 -94 63 -92 l42 2 0 -90 0 -90 -52 -3 c-53 -3
-53 -3 -53 -36 0 -18 -7 -57 -16 -86 -9 -31 -14 -69 -10 -89 5 -33 1 -39 -55
-94 -56 -53 -59 -60 -45 -75 13 -16 9 -22 -51 -71 l-65 -54 -22 27 -21 27 -79
-31 c-43 -17 -94 -34 -112 -37 -33 -5 -34 -7 -34 -54 l0 -49 -79 0 -80 0 -3
47 -3 46 -83 22 c-46 12 -88 27 -95 34 -17 17 -39 13 -67 -14 l-27 -25 -60 46
c-60 46 -60 46 -46 75 11 22 12 33 3 50 -10 18 -18 20 -53 15 -40 -5 -43 -4
-73 37 l-31 42 19 26 c20 26 20 26 -6 108 -14 45 -26 91 -26 102 0 16 -7 19
-50 19 l-50 0 0 84 0 85 42 3 42 3 16 65 c9 36 24 79 33 97 10 18 17 39 17 47
0 14 -48 60 -72 69 -9 3 -2 16 21 41 31 32 40 36 86 36 28 0 56 5 63 12 7 7
12 33 12 59 0 44 3 50 48 87 l47 39 24 -29 c27 -33 27 -33 136 6 39 14 82 26
98 26 26 0 27 2 27 50 l0 50 85 0 85 0 0 -54z m-5400 22 c0 -13 4 -30 10 -38
7 -11 11 -9 19 13 6 16 11 33 11 38 0 13 34 11 48 -3 30 -30 -2 -85 -60 -104
-26 -8 -63 12 -84 44 -16 25 -16 26 10 49 34 29 46 29 46 1z m6411 -38 c28
-16 51 -67 44 -100 -8 -37 -35 -60 -79 -67 -29 -4 -42 0 -71 21 -47 36 -48 75
-1 122 35 35 70 43 107 24z m-7591 -32 c0 -27 27 -58 52 -58 10 0 30 7 43 16
l24 16 -10 -37 c-6 -21 -8 -48 -4 -62 6 -24 5 -24 -17 -9 -12 9 -30 16 -39 16
-26 0 -52 -36 -47 -64 3 -14 1 -23 -3 -20 -5 3 -9 11 -9 18 0 22 -30 40 -76
46 l-44 5 47 35 c39 28 50 43 57 78 10 44 26 57 26 20z m625 -8 c3 -6 -4 -10
-17 -10 -18 0 -20 2 -8 10 19 12 18 12 25 0z m35 -14 c0 -2 -7 -9 -15 -16 -13
-11 -14 -10 -9 4 5 14 24 23 24 12z m969 -62 c-9 -11 -8 -14 5 -14 11 0 16 9
16 30 0 17 5 30 10 30 6 0 10 -9 10 -20 0 -13 7 -20 20 -20 17 0 20 -7 20 -47
0 -27 4 -52 8 -58 15 -21 30 -13 36 21 10 52 23 33 30 -48 14 -144 47 -264
138 -503 47 -125 182 -350 268 -448 37 -42 39 -46 16 -37 -29 11 -56 4 -56
-14 0 -6 4 -26 9 -44 7 -23 6 -32 -2 -32 -7 0 -4 -5 5 -11 17 -9 17 -12 2 -41
-9 -16 -12 -28 -7 -25 9 6 6 -518 -3 -560 -5 -27 -35 -31 -58 -8 -19 19 -35
19 -74 -1 -23 -11 -32 -22 -32 -40 0 -17 -5 -24 -20 -24 -11 0 -20 -7 -20 -15
0 -8 5 -15 10 -15 6 0 10 -9 10 -20 0 -11 -6 -20 -12 -20 -10 0 -9 -3 1 -9 10
-7 8 -10 -10 -16 -69 -20 -79 -28 -79 -67 0 -31 -4 -38 -20 -38 -13 0 -20 -7
-20 -20 0 -17 7 -20 41 -20 35 0 40 -3 35 -17 -5 -15 -4 -15 9 1 8 11 15 15
15 10 0 -6 -3 -14 -7 -18 -5 -4 -8 -11 -8 -14 0 -4 -8 -18 -18 -32 -9 -13 -17
-19 -17 -13 0 6 7 16 15 23 11 9 12 15 2 25 -7 7 -14 11 -16 9 -2 -2 -11 2
-20 8 -13 10 -14 10 -3 -2 17 -20 16 -71 -2 -64 -16 6 -38 52 -31 64 3 5 0 12
-6 16 -8 5 -9 3 -4 -7 5 -8 -1 -5 -13 5 -12 11 -22 25 -22 33 0 7 -5 13 -11
13 -6 0 -9 9 -6 20 3 11 1 23 -4 26 -17 10 -9 57 13 75 14 13 16 19 7 19 -11
0 -11 2 1 10 8 5 41 10 72 10 54 0 58 2 64 26 4 14 4 49 1 78 l-5 53 56 1 c31
1 62 -4 71 -11 10 -8 13 -8 8 0 -4 6 -2 13 5 15 15 5 15 63 -2 82 -8 11 -30
16 -66 16 -50 0 -54 2 -54 24 0 22 5 24 67 29 48 4 70 10 80 23 7 10 13 21 13
25 0 4 -36 9 -79 11 l-80 3 -5 -29 c-3 -16 -6 -47 -6 -70 0 -22 -4 -46 -8 -53
-15 -24 -66 -33 -184 -33 -110 0 -120 -1 -113 -17 12 -30 17 -127 7 -141 -5
-7 -16 -10 -26 -6 -15 6 -17 18 -15 83 l2 76 -244 2 c-277 3 -343 8 -364 29
-15 16 -22 99 -17 219 l2 60 -77 -3 c-51 -2 -82 -9 -89 -18 -6 -7 -22 -18 -35
-23 l-24 -10 28 0 c15 -1 27 -6 27 -12 0 -11 87 -6 133 7 14 4 17 -1 17 -26
l0 -32 -77 6 c-114 8 -158 17 -142 28 17 11 -58 8 -82 -3 -8 -4 -21 -4 -28 1
-10 5 -4 10 17 15 17 3 47 17 66 30 19 13 37 19 40 14 2 -5 3 -4 2 3 -2 7 8
30 21 50 12 21 23 48 24 60 1 21 2 20 11 -5 10 -28 11 -28 86 -25 l77 3 -2 85
c-1 47 -2 90 -2 95 -1 6 -33 10 -76 10 -79 0 -85 -4 -77 -52 4 -21 10 -23 73
-23 67 0 69 -1 69 -25 0 -25 -1 -25 -78 -25 -76 0 -79 1 -92 28 -8 15 -20 34
-28 44 -9 11 -10 18 -2 23 8 5 8 11 -1 22 -10 12 -10 16 1 23 9 6 11 22 7 59
-4 30 -2 52 3 52 6 1 23 2 39 3 25 1 27 -1 17 -16 -7 -9 -10 -32 -8 -50 l4
-33 69 3 c52 3 69 0 70 -10 1 -7 4 -2 8 12 6 21 15 26 58 32 78 11 906 5 910
-7 2 -6 34 -9 78 -7 75 4 75 4 75 32 0 34 -14 40 -90 40 l-59 0 -3 83 -3 82
-202 3 -203 2 0 -94 c0 -97 -5 -112 -30 -96 -12 7 -15 30 -13 99 1 61 -2 91
-10 93 -7 2 -48 1 -92 -2 l-79 -5 3 -99 c2 -78 0 -97 -11 -94 -28 10 -39 51
-33 125 3 43 2 74 -4 78 -12 7 7 55 21 55 4 0 8 14 8 30 0 28 2 30 43 32 71 2
91 4 130 12 34 6 40 4 63 -23 45 -54 89 -74 149 -69 29 2 66 13 82 23 15 11
31 18 36 17 4 -1 7 5 7 13 0 9 7 30 16 47 19 36 35 140 21 131 -5 -3 -6 4 -2
18 4 13 4 21 0 17 -8 -8 -45 28 -45 44 0 4 -9 8 -19 8 -11 0 -22 4 -25 9 -11
17 -93 22 -128 8 -40 -18 -114 -80 -116 -99 -8 -65 -14 -78 -42 -78 -16 0 -35
6 -42 13 -7 8 -20 16 -28 20 -8 3 2 6 23 6 30 1 37 5 37 21 0 11 -4 20 -10 20
-5 0 -10 9 -10 20 0 11 -4 20 -9 20 -24 0 -19 241 6 259 5 3 16 18 26 34 10
15 23 27 29 27 9 0 9 -3 0 -12 -17 -17 -15 -26 8 -33 11 -3 27 -13 35 -22 14
-14 18 -13 34 6 29 34 81 28 127 -14 l39 -35 -31 6 c-23 4 -33 2 -37 -11 -5
-12 -14 -15 -42 -9 -52 9 -85 -2 -85 -29 0 -43 15 -52 78 -50 109 4 138 34
112 113 -11 35 -11 40 9 61 11 12 21 29 21 36 0 7 3 13 8 13 4 0 7 29 7 64 0
35 -2 63 -4 61 -2 -2 -18 7 -36 20 -31 24 -62 34 -51 16 3 -5 -14 -15 -39 -22
-25 -7 -45 -17 -45 -21 0 -4 7 -5 15 -2 8 4 15 2 15 -3 0 -5 -12 -10 -27 -11
-14 -1 -35 -9 -45 -19 -10 -9 -18 -13 -18 -9 0 14 92 201 101 204 5 2 9 11 10
20 0 12 3 9 10 -7 6 -16 6 -28 -2 -37z m-789 -83 c29 -70 29 -73 10 -78 -25
-7 -26 -25 -1 -21 19 3 61 -27 61 -44 0 -5 -10 0 -22 12 -14 13 -35 20 -60 20
-23 0 -38 5 -39 13 -1 6 -2 17 -4 22 -1 6 -3 17 -3 25 -1 8 -15 21 -31 28 -25
11 -29 17 -22 35 4 11 16 26 27 32 10 5 25 16 32 23 8 7 16 11 18 9 2 -2 17
-36 34 -76z m425 17 c-14 -25 -35 -88 -46 -139 -18 -84 -29 -119 -29 -93 0 16
-48 238 -55 256 -6 15 0 16 54 12 34 -3 69 -1 78 5 26 14 26 9 -2 -41z m6425
-32 c0 -2 -8 -10 -17 -17 -16 -13 -17 -12 -4 4 13 16 21 21 21 13z m-70 -51
c0 -2 -10 -9 -22 -15 -22 -11 -22 -10 -4 4 21 17 26 19 26 11z m-1930 -194
c11 -28 10 -32 -11 -50 -23 -19 -24 -24 -24 -166 0 -142 1 -147 24 -166 13
-10 37 -19 53 -19 30 0 30 0 14 -25 -18 -28 -21 -62 -6 -67 6 -2 12 -22 13
-45 0 -23 5 -39 11 -36 5 4 6 1 1 -7 -4 -7 -2 -16 6 -21 10 -6 8 -9 -10 -9
-21 0 -23 -3 -17 -31 6 -31 6 -31 -29 -25 -28 6 -35 4 -35 -9 0 -13 -19 -20
-43 -16 -5 1 -5 -4 -1 -10 5 -9 1 -10 -17 -4 -13 4 -55 10 -94 12 -65 4 -73 2
-118 -28 -91 -60 -129 -154 -110 -272 14 -85 15 -89 42 -115 23 -23 23 -25 25
-253 1 -223 0 -229 -19 -229 -43 0 -142 -58 -185 -108 -35 -41 -47 -49 -61
-41 -10 5 -20 18 -24 29 -4 12 -21 24 -46 30 -23 6 -39 17 -39 25 0 20 -29 19
-37 0 -11 -32 -62 34 -77 100 -4 17 -3 25 1 20 11 -14 143 -55 176 -55 35 0
120 22 128 33 4 5 10 4 13 -2 10 -16 26 -14 26 4 0 8 6 15 14 15 11 0 21 25
26 65 1 3 7 23 15 46 28 78 15 178 -29 228 -11 13 -15 21 -8 17 6 -4 12 -3 12
2 0 6 -13 15 -30 21 -16 5 -30 15 -30 21 0 7 -6 10 -12 7 -7 -2 -30 2 -52 9
-84 30 -183 8 -241 -52 -15 -16 -38 -53 -52 -82 -22 -46 -25 -64 -21 -133 6
-112 -8 -118 -93 -41 l-63 57 -85 1 c-147 1 -155 8 -58 47 170 70 192 80 197
86 3 3 34 26 70 51 87 59 258 189 265 201 4 5 11 6 17 3 6 -4 8 -2 5 3 -9 14
19 37 34 27 8 -5 9 -3 5 5 -5 8 19 40 67 89 81 84 218 286 303 447 55 105 108
252 145 407 13 51 26 94 30 96 5 2 5 10 2 18 -3 8 -2 22 3 32 5 11 10 -3 14
-45 4 -33 13 -75 20 -92z m1695 126 c16 -13 15 -14 -13 -9 -18 2 -32 8 -32 13
0 13 24 11 45 -4z m-160 -36 c-3 -5 5 -11 17 -13 17 -2 24 -11 26 -30 2 -16 8
-28 13 -28 12 0 28 -41 22 -56 -5 -13 -104 5 -115 21 -15 20 -8 87 10 101 20
16 36 18 27 5z m-6335 -24 c0 -16 3 -18 9 -9 6 11 9 10 13 -5 4 -14 -1 -18
-24 -18 -15 0 -28 5 -28 12 0 6 -2 18 -5 25 -4 9 2 14 15 15 14 1 20 -4 20
-20z m-27 -50 c4 3 7 1 7 -5 0 -12 -55 -26 -69 -18 -5 4 -11 1 -13 -4 -2 -7
-11 -5 -23 4 -19 14 -17 15 28 16 36 0 46 3 41 13 -6 9 -5 9 8 0 8 -7 18 -10
21 -6z m6725 -4 c-2 -10 3 -23 12 -30 28 -21 5 -22 -29 -1 -31 20 -32 22 -15
35 25 18 36 16 32 -4z m-7273 -47 c95 -72 76 -217 -33 -263 -31 -13 -38 -12
-78 7 -56 28 -86 70 -91 129 -10 112 117 192 202 127z m418 -3 c-7 -2 -21 -2
-30 0 -10 3 -4 5 12 5 17 0 24 -2 18 -5z m-51 -55 c-8 -8 -9 -4 -5 13 4 13 8
18 11 10 2 -7 -1 -18 -6 -23z m-195 -20 c-3 -8 -6 -5 -6 6 -1 11 2 17 5 13 3
-3 4 -12 1 -19z m526 2 c-3 -11 -9 -20 -14 -20 -5 0 -9 -10 -9 -21 0 -17 5
-20 24 -17 19 4 22 1 18 -14 -2 -10 3 -29 12 -43 15 -22 15 -26 1 -31 -10 -4
-12 -11 -6 -22 11 -20 3 -19 154 -20 76 -1 116 -6 112 -12 -3 -5 0 -10 8 -10
7 0 14 -6 14 -14 0 -19 -48 -27 -157 -25 -56 1 -95 -3 -104 -10 -11 -9 -17 -8
-29 4 -26 25 -37 17 -37 -26 0 -36 2 -41 20 -36 12 3 20 0 20 -8 0 -7 8 -12
18 -11 14 1 17 -7 17 -44 0 -25 5 -49 10 -53 6 -5 0 -5 -12 -2 -14 4 -23 2
-23 -4 0 -6 -12 -11 -27 -11 -16 0 -39 -6 -53 -13 -21 -10 -33 -10 -70 3 -25
8 -46 18 -48 23 -2 4 -11 7 -19 7 -9 0 -21 7 -27 15 -10 14 -13 14 -31 0 -11
-9 -14 -14 -7 -10 7 3 12 0 12 -8 0 -10 -7 -13 -20 -10 -11 3 -20 12 -20 19 0
17 1 17 -39 3 l-31 -11 0 -94 0 -94 -46 0 -45 0 7 88 c3 48 6 96 6 107 -1 55
10 105 24 105 8 0 14 5 14 10 0 6 9 10 21 10 16 0 19 -4 14 -20 -4 -13 -1 -22
9 -26 9 -3 16 -13 16 -21 0 -11 9 -14 34 -11 27 3 33 1 29 -12 -3 -12 -2 -12
8 1 11 15 15 15 45 -3 21 -12 41 -17 54 -13 12 4 28 1 38 -7 15 -12 16 -11 4
4 -11 14 -10 18 10 29 13 7 27 12 31 11 5 -1 6 1 4 5 -3 5 3 26 13 48 l18 40
5 -30 c2 -17 3 -6 1 24 -1 30 -9 58 -16 64 -9 6 -8 7 5 3 9 -3 17 -1 17 4 0 6
-6 10 -12 10 -9 0 -8 4 2 11 12 8 10 9 -10 7 -14 -2 -24 -9 -22 -16 1 -8 -2
-11 -8 -7 -5 3 -10 12 -10 19 0 8 -8 20 -17 27 -11 9 -14 10 -9 2 5 -9 2 -11
-8 -7 -9 3 -13 11 -9 18 4 6 0 6 -9 -2 -10 -8 -19 -9 -22 -3 -3 5 0 12 6 14
10 4 9 8 -2 16 -8 6 -15 14 -15 18 -1 13 -34 69 -35 58 0 -6 -10 -11 -22 -12
l-23 -2 24 20 c22 18 26 18 33 4 14 -24 74 -16 89 12 14 25 29 30 29 9 0 -20
48 -7 55 15 8 25 25 24 18 -1z m-320 -46 c-3 -8 -14 -14 -24 -14 -12 0 -19 -7
-19 -20 0 -11 5 -20 10 -20 6 0 10 -9 10 -20 0 -17 -7 -20 -41 -20 -38 0 -41
2 -35 23 3 12 6 34 6 50 0 17 5 27 15 27 8 0 15 4 15 9 0 13 42 19 57 8 6 -5
9 -15 6 -23z m6891 10 c3 -9 6 -29 6 -45 0 -38 -37 -58 -75 -41 -20 9 -25 19
-25 50 0 48 4 52 51 52 24 0 39 -5 43 -16z m114 -30 c-3 -14 -5 -12 -10 9 -3
19 -2 25 4 19 6 -6 8 -18 6 -28z m-7204 -557 c-3 -143 -7 -173 -24 -207 -21
-40 -40 -53 -40 -25 0 8 9 37 20 65 11 28 20 73 20 99 0 50 -29 129 -55 151
-8 7 -12 17 -8 24 3 6 3 8 -2 4 -4 -4 -20 1 -34 11 -14 10 -34 21 -43 24 -15
5 -18 19 -18 71 0 62 13 96 23 59 3 -10 5 -1 6 20 1 26 6 40 19 44 40 15 87
86 109 163 l18 65 7 -200 c3 -110 5 -275 2 -368z m7196 503 c0 -11 -4 -20 -9
-20 -5 0 -7 9 -4 20 3 11 7 20 9 20 2 0 4 -9 4 -20z m-5988 -80 c35 -36 33
-71 -8 -107 -34 -31 -61 -29 -95 8 -34 37 -37 67 -8 103 29 36 72 35 111 -4z
m5796 -15 c36 -7 42 -20 12 -28 -33 -9 -22 -23 14 -19 28 3 37 -1 50 -21 36
-54 -43 -132 -84 -82 -7 8 -10 31 -8 50 3 27 1 34 -12 32 -10 -1 -16 8 -18 31
-2 18 -8 30 -13 27 -10 -7 -13 18 -2 28 3 4 11 3 17 -2 6 -5 26 -12 44 -16z
m-6634 -48 c28 -20 17 -52 -18 -52 -36 0 -56 26 -37 49 16 19 31 20 55 3z
m6426 -22 c0 -8 -4 -15 -10 -15 -5 0 -7 7 -4 15 4 8 8 15 10 15 2 0 4 -7 4
-15z m137 -3 c8 -5 8 -15 -2 -40 -18 -42 -50 -46 -87 -13 -19 18 -18 19 14 40
35 22 55 26 75 13z m298 -5 c13 -10 16 -21 11 -40 -8 -33 -44 -37 -71 -7 -17
19 -17 21 0 40 21 23 34 25 60 7z m-456 -42 c0 -5 -4 -3 -9 5 -8 13 -10 13
-10 -1 0 -9 -7 -19 -15 -23 -12 -4 -14 0 -9 22 12 47 41 45 43 -3z m121 -55
c0 -5 -4 -10 -10 -10 -5 0 -10 5 -10 10 0 6 5 10 10 10 6 0 10 -4 10 -10z m3
-42 c4 -10 8 -10 14 -1 4 6 20 9 36 6 24 -5 32 -14 28 -35 0 -4 6 -5 14 -2 8
4 15 1 15 -6 0 -6 4 -9 9 -6 5 3 16 -6 26 -20 21 -32 14 -81 -16 -112 -27 -30
-50 -28 -90 7 -18 16 -38 27 -43 24 -5 -3 -6 -1 -2 6 4 6 12 8 18 5 7 -5 9 0
6 14 -4 13 0 23 9 26 10 4 13 12 8 24 -4 9 -8 22 -8 29 -1 26 -17 0 -23 -37
-4 -22 -10 -37 -15 -34 -5 3 -9 -4 -9 -14 0 -30 -24 -46 -49 -32 -24 12 -26
25 -8 63 13 30 27 35 27 11 0 -8 5 -12 10 -9 6 3 10 15 10 25 0 10 8 24 18 29
15 9 15 10 -5 11 -16 0 -23 6 -23 20 0 22 35 28 43 8z m-6213 -132 c0 -34 -5
-68 -10 -76 -9 -13 -13 -12 -26 5 -12 15 -15 35 -10 83 7 76 14 92 33 67 7
-11 13 -44 13 -79z m442 39 c7 -46 2 -108 -9 -128 -3 -4 -11 -3 -19 4 -10 8
-14 35 -14 96 0 75 2 84 17 81 13 -2 20 -17 25 -53z m-558 29 c18 -48 -3 -169
-28 -161 -12 4 -20 118 -11 154 6 26 30 31 39 7z m329 -44 c7 -59 -4 -110 -22
-110 -12 0 -21 36 -21 85 0 99 34 119 43 25z m337 -20 c0 -64 -3 -80 -15 -80
-22 0 -35 33 -29 76 10 71 14 84 29 84 12 0 15 -16 15 -80z m120 1 c0 -44 -4
-82 -8 -85 -28 -17 -51 59 -38 128 5 27 12 36 26 36 18 0 20 -7 20 -79z m-913
12 c-3 -10 -5 -2 -5 17 0 19 2 27 5 18 2 -10 2 -26 0 -35z m-20 -35 c-2 -13
-4 -3 -4 22 0 25 2 35 4 23 2 -13 2 -33 0 -45z m-1007 32 c0 -5 -8 -10 -17
-10 -15 0 -16 2 -3 10 19 12 20 12 20 0z m401 -31 c40 -28 59 -69 59 -124 0
-100 -105 -142 -176 -71 -27 27 -34 42 -34 74 0 53 14 87 46 117 33 30 67 32
105 4z m6822 -19 c-3 -11 -9 -20 -14 -20 -5 0 -9 -10 -9 -23 0 -29 -18 -47
-44 -46 -17 0 -16 2 7 11 15 5 27 14 27 19 0 6 -5 7 -11 3 -14 -8 5 29 29 57
20 24 21 24 15 -1z m-6235 -27 c-10 -2 -26 -2 -35 0 -10 3 -2 5 17 5 19 0 27
-2 18 -5z m5066 -95 c-3 -4 4 -8 15 -8 11 0 23 -5 27 -12 4 -6 3 -8 -4 -4 -6
3 -13 2 -16 -3 -4 -5 -2 -12 4 -16 5 -3 7 -17 4 -31 -5 -18 -2 -24 9 -24 11 0
18 -14 22 -47 3 -27 8 -58 11 -70 2 -13 0 -23 -6 -23 -18 0 -11 -15 13 -25 32
-15 29 -49 -5 -53 -16 -2 -28 -8 -28 -13 0 -6 5 -7 10 -4 6 3 10 -3 10 -14 0
-11 -4 -23 -10 -26 -5 -3 -10 1 -10 10 0 9 -4 13 -10 10 -5 -3 -10 -20 -10
-37 0 -29 -2 -30 -30 -24 -17 3 -30 1 -30 -4 0 -6 -5 -10 -12 -10 -8 0 -9 36
-4 138 12 217 7 282 -20 282 -9 0 -12 5 -9 10 3 6 0 10 -7 10 -9 0 -9 3 -2 8
6 4 14 21 18 37 l8 30 33 -40 c19 -21 31 -43 29 -47z m-6044 44 c-10 -4 -9 -6
1 -12 10 -7 10 -14 2 -32 -7 -14 -12 -17 -12 -8 -1 13 -2 13 -11 0 -8 -12 -10
-11 -10 6 0 11 -5 25 -12 32 -6 6 -13 18 -14 26 -1 11 5 11 33 3 20 -6 30 -13
23 -15z m5678 -27 c36 -31 72 -103 72 -147 0 -43 -69 -152 -86 -135 -4 4 -10
37 -13 74 -6 63 -8 69 -40 90 -19 13 -38 23 -42 23 -5 0 -8 -28 -8 -62 1 -35
4 -51 6 -35 7 45 23 31 23 -20 0 -76 -11 -82 -58 -35 -81 81 -66 206 29 254
47 25 82 22 117 -7z m-3271 -72 c50 -55 53 -60 48 -103 -12 -116 -15 -279 -16
-845 -1 -500 -4 -615 -16 -637 -7 -16 -17 -28 -22 -28 -5 0 -11 -10 -15 -22
-4 -18 -8 -20 -18 -10 -22 22 -26 247 -19 957 4 380 4 702 0 718 -4 15 -5 27
-1 27 3 0 30 -26 59 -57z m3467 41 c3 -8 9 -13 13 -11 5 3 8 -112 9 -254 0
-159 -3 -259 -9 -259 -5 0 -7 -14 -3 -31 5 -28 4 -30 -17 -23 -12 4 -25 12
-29 18 -4 6 -8 -5 -9 -24 -2 -72 -27 116 -28 212 -1 83 3 108 25 164 22 54 26
75 21 122 -3 31 -9 67 -13 80 -5 18 -2 22 14 22 11 0 23 -7 26 -16z m-5090
-20 c6 -15 4 -15 -11 -3 -10 7 -20 15 -22 16 -2 2 3 3 11 3 9 0 19 -7 22 -16z
m5340 -12 c3 -5 -1 -9 -9 -9 -8 0 -12 4 -9 9 3 4 7 8 9 8 2 0 6 -4 9 -8z
m1259 -59 c3 -18 0 -36 -5 -39 -7 -4 -8 -2 -4 4 4 7 2 12 -3 12 -6 0 -11 -5
-11 -11 0 -14 -25 -39 -39 -39 -6 0 -11 9 -11 20 0 11 -5 20 -12 20 -21 0 6
18 32 22 14 2 29 13 35 25 11 27 12 26 18 -14z m-6644 -29 c12 -15 21 -39 21
-54 0 -38 -35 -80 -68 -80 -35 0 -72 37 -72 73 0 34 48 87 79 87 11 0 29 -12
40 -26z m6545 11 c-4 -8 -8 -15 -10 -15 -2 0 -4 7 -4 15 0 8 4 15 10 15 5 0 7
-7 4 -15z m-348 -25 c8 0 14 -7 14 -15 0 -18 16 -20 24 -2 3 6 3 2 0 -10 -3
-14 -1 -23 6 -23 6 0 10 -7 8 -16 -4 -25 19 -29 27 -5 6 20 6 20 26 0 11 -11
24 -17 29 -14 9 6 6 -50 -4 -76 -4 -8 -25 -23 -46 -33 -22 -10 -40 -22 -40
-27 0 -5 -24 -7 -52 -6 -59 4 -92 -7 -81 -26 3 -7 -14 7 -40 31 -26 23 -52 42
-59 42 -7 0 -32 -7 -55 -16 -46 -18 -73 -9 -73 23 0 13 3 13 15 3 17 -14 89
-5 80 11 -4 6 9 8 32 6 25 -1 38 -7 38 -17 1 -8 13 -28 28 -44 15 -17 25 -22
21 -13 -3 10 -1 24 6 32 10 12 10 15 -1 16 -10 0 -11 2 -1 6 15 6 16 33 1 33
-7 0 -10 13 -7 34 2 19 0 32 -4 30 -4 -3 -8 5 -8 18 0 17 11 30 38 46 20 12
43 19 50 17 8 -3 20 -5 28 -5z m-6407 -62 c0 -33 -2 -38 -9 -23 -12 28 -12 65
0 65 6 0 10 -19 9 -42z m6861 18 c0 -2 -9 -2 -20 1 -11 3 -20 9 -20 15 0 5 9
4 20 -2 11 -6 20 -12 20 -14z m-840 -6 c115 -1 122 -3 95 -15 -16 -8 -25 -15
-20 -15 6 -1 0 -5 -13 -11 -13 -5 -52 -8 -87 -8 -73 1 -85 -4 -85 -34 -1 -21
-1 -21 -15 -3 -8 10 -13 32 -11 48 2 20 0 28 -9 25 -6 -3 -12 1 -12 8 0 7 7
11 16 10 9 -2 72 -4 141 -5z m160 0 c-20 -13 -33 -13 -25 0 3 6 14 10 23 10
15 0 15 -2 2 -10z m-6400 -15 c0 -8 5 -15 10 -15 23 0 8 -19 -17 -22 -17 -2
-32 -12 -38 -25 -12 -27 -35 -38 -35 -17 0 8 5 12 10 9 6 -3 10 -2 10 4 0 5
-3 11 -7 14 -5 2 -3 3 3 1 6 -1 18 6 27 17 16 18 16 19 -1 19 -15 1 -15 2 2
15 25 19 36 19 36 0z m2324 -38 c38 -32 39 -34 27 -68 -9 -25 -11 -199 -10
-680 1 -484 -2 -652 -11 -669 -6 -12 -9 -32 -6 -43 4 -19 1 -22 -29 -23 -32 0
-33 1 -28 32 3 21 0 40 -11 55 -14 21 -16 93 -16 705 0 375 3 695 6 712 7 36
14 34 78 -21z m4704 -41 c15 -8 40 -28 56 -45 24 -25 30 -42 34 -88 4 -55 2
-60 -33 -100 -34 -40 -40 -43 -86 -43 -59 0 -97 17 -133 60 -21 26 -26 42 -26
87 0 52 3 58 44 99 35 36 50 44 80 44 20 0 49 -6 64 -14z m-7082 -43 c-10 -10
-19 5 -10 18 6 11 8 11 12 0 2 -7 1 -15 -2 -18z m5459 -35 c9 -40 -5 -398 -15
-398 -4 0 -28 9 -54 20 -25 12 -59 22 -76 23 -30 2 -30 2 -29 62 1 41 3 52 8
35 6 -22 8 -23 14 -7 4 10 7 27 7 38 0 10 7 19 15 19 10 0 15 10 15 29 0 16 7
34 15 41 21 18 31 80 14 91 -8 5 -9 9 -4 9 6 0 4 4 -4 9 -10 7 -5 13 23 26 20
10 39 21 42 26 11 18 23 8 29 -23z m819 -6 c32 -50 117 -90 152 -72 33 18 44
5 44 -56 0 -76 21 -122 57 -126 20 -2 29 -9 31 -25 3 -18 -2 -22 -30 -25 -29
-3 -34 -7 -44 -48 -7 -25 -15 -61 -18 -81 -6 -35 -8 -37 -67 -48 -71 -14 -96
-36 -105 -91 -6 -37 -9 -41 -32 -38 -21 2 -27 11 -36 48 -12 47 -27 57 -92 59
-17 1 -46 11 -65 24 -31 21 -34 28 -39 82 -5 59 -6 60 -47 80 -24 11 -43 23
-43 27 0 7 53 44 73 51 4 1 12 34 18 72 5 38 14 74 19 79 5 5 39 13 76 18 78
9 90 17 106 69 6 22 13 39 14 39 2 0 15 -17 28 -38z m-6228 14 c12 1 28 5 35
9 11 6 12 5 2 -6 -7 -7 -13 -17 -13 -22 0 -4 6 -5 13 -1 6 4 1 -4 -13 -19 -14
-15 -32 -27 -40 -27 -13 0 -13 1 0 10 13 9 7 14 -12 11 -5 0 -8 14 -8 32 0 17
4 27 8 22 4 -6 17 -10 28 -9z m2543 -41 c4 -5 4 -68 -1 -140 -4 -71 -7 -367
-5 -657 1 -478 0 -529 -15 -544 -20 -20 -63 -12 -72 13 -8 20 -8 1362 0 1374
6 10 79 -27 93 -46z m2712 34 c-2 -8 -7 -50 -11 -94 l-7 -80 -1 98 c-2 75 1
98 11 94 6 -2 10 -11 8 -18z m-345 -50 c49 -48 62 -96 40 -154 -23 -60 -57
-85 -115 -85 -110 0 -176 96 -132 194 40 92 137 113 207 45z m981 -1 c-3 -8
-6 -5 -6 6 -1 11 2 17 5 13 3 -3 4 -12 1 -19z m-5182 -69 c0 -22 -5 -24 -60
-29 l-60 -5 -5 -47 c-3 -32 -9 -45 -16 -40 -20 13 -44 71 -42 101 2 29 4 30
68 36 36 3 72 8 80 9 27 6 35 0 35 -25z m2007 10 l41 -21 -7 -51 c-3 -29 -6
-278 -6 -555 0 -290 -4 -501 -9 -498 -11 7 -24 -94 -15 -117 5 -13 2 -16 -12
-14 -11 1 -24 6 -31 10 -6 4 -13 1 -16 -5 -11 -33 -16 195 -17 710 -1 628 -7
581 72 541z m-2538 -30 c32 -38 32 -56 3 -100 -40 -60 -116 -42 -132 32 -7 29
15 83 37 92 35 14 67 6 92 -24z m6375 -53 c9 -3 5 -4 -9 -3 -19 2 -26 8 -27
27 -3 25 -3 25 8 3 7 -12 19 -24 28 -27z m-3631 3 l24 -9 -8 -538 c-9 -593 -8
-615 7 -644 8 -15 8 -19 0 -14 -6 4 -11 4 -11 -1 0 -4 -17 -9 -38 -11 -20 -1
-38 -7 -40 -12 -5 -14 -36 -13 -68 2 l-26 12 33 11 c18 6 42 23 52 37 17 23
18 32 8 77 -12 58 -15 692 -4 954 7 175 0 162 71 136z m1262 -49 c10 -24 23
-33 63 -45 28 -8 57 -15 65 -15 7 0 34 -12 58 -26 l45 -27 22 21 c12 11 32 23
45 27 19 5 22 3 22 -22 0 -16 7 -38 15 -51 13 -18 14 -29 5 -63 l-11 -42 -37
36 c-80 76 -201 117 -348 117 -118 0 -175 -16 -270 -79 -80 -51 -105 -79 -148
-160 -87 -165 -87 -348 0 -510 59 -111 191 -206 322 -231 34 -7 62 -14 62 -15
0 -1 -7 -22 -15 -45 -8 -23 -15 -58 -15 -76 0 -19 -5 -34 -11 -34 -5 0 -8 4
-5 9 9 14 -70 31 -85 17 -9 -8 -10 -8 -5 2 5 8 0 12 -13 12 -20 0 -21 4 -15
55 7 53 6 55 -22 65 -57 21 -79 36 -146 103 -48 48 -71 81 -80 110 -6 23 -25
61 -41 83 -24 35 -28 50 -26 94 2 38 -1 56 -12 64 -18 13 -18 58 -1 99 7 16
18 77 25 135 12 106 12 107 44 122 18 8 42 26 54 39 24 25 24 22 -12 118 l-8
22 -46 -25 c-25 -14 -43 -30 -39 -35 3 -5 1 -9 -4 -9 -5 0 -15 -11 -22 -25 -7
-13 -18 -22 -23 -18 -6 3 -7 1 -4 -4 4 -6 -5 -23 -18 -39 l-25 -29 0 33 c0 27
-4 32 -24 32 -21 0 -25 -5 -29 -37 -3 -30 -4 -27 -5 16 -1 30 -7 69 -14 88 -8
22 -9 41 -2 60 9 26 15 29 74 34 36 3 101 10 144 14 58 6 77 5 72 -3 -4 -6
-14 -8 -23 -5 -11 4 -14 2 -11 -8 3 -8 16 -14 30 -14 14 0 34 -8 45 -17 44
-40 123 -30 123 15 0 38 14 47 87 56 38 5 83 16 99 24 48 26 80 22 94 -13z
m-1048 -8 c3 -4 8 -261 9 -572 l4 -565 -45 0 c-40 0 -46 3 -59 30 -12 24 -12
41 -2 103 8 46 10 105 5 162 -3 49 -3 263 1 475 l7 387 37 -7 c20 -4 39 -10
43 -13z m-2304 -65 c3 -61 1 -67 -17 -67 -24 0 -36 44 -26 101 5 30 11 39 23
37 14 -3 18 -17 20 -71z m795 40 c7 -46 -5 -102 -23 -102 -11 0 -16 16 -18 68
-3 60 -1 67 16 67 14 0 21 -9 25 -33z m-685 -36 c2 -29 0 -61 -3 -70 -12 -31
-35 19 -35 77 0 46 3 53 18 50 13 -2 18 -15 20 -57z m118 5 c-7 -67 -15 -88
-30 -83 -6 2 -12 32 -14 70 -3 67 -3 67 24 67 27 0 27 0 20 -54z m224 0 c0
-64 -7 -86 -26 -86 -11 0 -14 17 -14 70 0 63 2 70 20 70 18 0 20 -7 20 -54z
m218 42 c11 -11 18 -108 8 -108 -2 0 -11 -3 -19 -6 -12 -4 -17 5 -22 39 -7 45
0 87 14 87 4 0 12 -5 19 -12z m-778 -68 c0 -65 -10 -90 -24 -55 -3 8 -12 15
-21 15 -13 0 -14 4 -5 21 6 11 9 36 7 55 -4 30 -2 34 19 34 23 0 24 -3 24 -70z
m448 10 c-5 -67 -11 -78 -33 -60 -10 8 -15 30 -15 66 0 52 1 54 26 54 26 0 26
-1 22 -60z m2160 44 c2 -1 5 -225 7 -498 4 -479 4 -496 -15 -506 -28 -15 -57
-12 -64 6 -3 9 -6 240 -6 514 l0 499 38 -6 c20 -3 38 -7 40 -9z m3782 2 c0 -2
-7 -6 -15 -10 -8 -3 -15 -1 -15 4 0 6 7 10 15 10 8 0 15 -2 15 -4z m-315 -57
c9 -29 -21 -71 -48 -67 -30 4 -35 50 -8 77 23 23 47 19 56 -10z m-6364 -22
c31 -21 34 -28 32 -66 -5 -105 -88 -126 -142 -36 -28 48 -27 58 14 94 43 37
52 38 96 8z m6144 -47 c3 -5 0 -7 -8 -4 -15 5 -37 -34 -37 -66 0 -11 -4 -20
-10 -20 -11 0 -13 24 -4 69 5 24 12 31 30 31 12 0 26 -4 29 -10z m-5139 -23
c7 3 21 -2 29 -11 15 -15 15 -18 -4 -42 -23 -29 -26 -74 -11 -139 6 -28 6 -42
-3 -47 -14 -9 -29 0 -21 13 3 6 -2 17 -12 24 -11 9 -14 14 -6 15 14 0 17 40 2
40 -5 0 -10 7 -10 15 0 8 -7 15 -16 15 -14 0 -16 -8 -11 -47 3 -26 0 -57 -5
-69 -14 -31 -1 -114 18 -114 8 0 14 9 14 20 0 11 5 20 10 20 6 0 10 12 10 26
0 14 4 23 10 19 6 -3 10 -15 10 -26 0 -12 7 -19 20 -19 13 0 20 -7 20 -19 0
-19 14 -22 37 -8 6 4 14 3 17 -2 4 -5 1 -11 -5 -13 -5 -2 -11 -18 -11 -35 -1
-27 -3 -30 -15 -17 -13 12 -18 12 -43 -6 -33 -24 -40 -25 -40 -7 0 8 -11 19
-25 25 -17 8 -25 8 -25 1 0 -6 -4 -7 -10 -4 -6 4 -10 83 -10 205 0 181 2 199
18 202 9 3 25 -1 36 -8 10 -7 24 -10 32 -7z m-473 7 l57 -6 0 -143 c0 -125 -2
-144 -17 -149 -23 -9 -47 17 -85 94 -26 51 -41 69 -73 85 -21 11 -45 26 -53
33 -7 6 -18 12 -23 12 -5 0 -9 9 -9 20 0 11 -4 20 -10 20 -5 0 -10 6 -10 14 0
8 -5 16 -11 18 -20 7 176 9 234 2z m222 -10 c11 -1 32 -3 47 -3 l26 -1 -3
-127 -3 -128 -38 -3 c-33 -3 -36 -2 -25 12 12 14 10 16 -13 16 -51 0 -61 23
-64 143 l-4 110 29 -8 c15 -4 37 -9 48 -11z m3095 -10 c61 -24 142 -82 179
-127 55 -70 75 -124 79 -219 5 -98 -6 -155 -45 -235 -90 -183 -353 -258 -553
-158 -49 25 -138 113 -163 162 -40 77 -50 228 -21 316 61 185 213 293 399 283
44 -2 100 -12 125 -22z m1014 3 c-3 -8 0 -26 6 -41 10 -29 26 -31 72 -12 11 5
18 1 23 -14 4 -11 18 -28 32 -37 24 -16 26 -16 38 0 17 23 24 21 65 -13 35
-30 35 -30 15 -48 -19 -16 -19 -18 -3 -52 10 -19 18 -52 18 -73 0 -38 0 -39
38 -35 l37 3 3 -47 3 -48 -40 0 -41 0 0 -41 c0 -28 -8 -51 -25 -73 -29 -38
-31 -49 -10 -66 19 -16 20 -59 1 -66 -8 -3 -29 5 -46 18 l-32 23 -27 -34 c-16
-20 -33 -31 -39 -27 -7 4 -27 4 -47 0 -32 -6 -35 -9 -35 -40 0 -32 -2 -34 -35
-34 -32 0 -35 2 -35 30 0 23 -6 33 -25 42 -22 10 -29 8 -51 -13 -17 -15 -28
-20 -31 -12 -2 6 -18 30 -34 53 l-30 41 -29 -21 -29 -20 -15 22 c-21 30 -20
45 4 53 24 8 25 18 4 35 -22 19 -37 50 -44 90 -5 32 -8 35 -34 32 -34 -4 -46
10 -46 55 0 30 3 32 37 35 38 3 38 3 45 58 10 73 36 155 57 181 17 21 18 21
46 3 l28 -18 25 29 c20 23 33 29 66 30 38 0 42 3 51 33 8 28 14 32 42 32 23 0
31 -4 27 -13z m-3362 -74 c2 -34 1 -60 -4 -57 -4 3 -8 35 -7 72 1 79 6 72 11
-15z m-1784 25 c4 -30 -33 -88 -55 -88 -19 0 -17 70 3 98 21 30 48 24 52 -10z
m6571 -29 c19 -35 8 -79 -21 -79 -52 0 -77 65 -36 94 28 20 39 17 57 -15z
m171 12 c0 -5 -7 -11 -14 -14 -10 -4 -13 -1 -9 9 6 15 23 19 23 5z m-2210 -31
c0 -18 -6 -33 -15 -36 -18 -7 -19 -44 -4 -130 l11 -63 46 -3 47 -3 0 -39 c0
-37 -2 -40 -40 -50 -35 -10 -40 -16 -47 -51 -10 -48 -55 -191 -70 -222 -6 -13
-20 -25 -30 -29 -10 -3 -25 -18 -33 -34 -8 -15 -46 -55 -85 -88 -78 -68 -126
-87 -244 -98 -60 -5 -75 -4 -89 11 -32 31 -21 45 36 45 176 0 346 107 422 265
47 101 59 161 52 279 -6 110 -23 171 -64 224 l-26 35 35 -6 c21 -3 45 0 59 8
35 19 39 18 39 -15z m2191 -107 c-18 -14 -61 -17 -61 -4 0 5 9 11 21 14 16 4
19 11 14 26 -6 20 -6 20 18 -1 23 -20 24 -23 8 -35z m-4933 22 c0 -30 -12 -32
-31 -5 -8 11 -17 17 -20 13 -4 -3 -7 -1 -7 5 0 7 13 12 29 12 24 0 29 -4 29
-25z m4025 -23 c34 -32 34 -50 2 -58 -34 -8 -52 0 -73 36 -10 16 -21 27 -24
24 -3 -3 -9 1 -14 8 -4 7 -4 10 1 6 4 -4 17 -1 27 7 24 16 44 11 81 -23z
m-4224 15 c-2 -1 -13 -9 -24 -17 -19 -14 -19 -14 -6 3 7 9 18 17 24 17 6 0 8
-1 6 -3z m-1164 -34 c-3 -15 -11 -31 -17 -34 -5 -3 -10 -10 -11 -15 -1 -5 -16
-19 -34 -31 -25 -17 -30 -18 -26 -6 4 11 2 14 -5 9 -7 -4 -28 3 -48 15 -30 18
-35 26 -32 50 4 24 1 29 -21 32 -14 2 25 5 88 6 l113 1 -7 -27z m305 -70 c19
-25 27 -43 19 -38 -11 6 -12 5 -1 -6 17 -18 15 -39 -3 -39 -8 0 -15 -5 -15
-11 0 -5 -5 -7 -12 -3 -8 5 -8 3 -2 -7 11 -17 13 -59 2 -53 -4 3 -8 12 -8 21
0 25 -29 78 -67 122 -34 41 -42 68 -9 36 14 -14 16 -14 16 -1 0 8 10 17 23 19
12 2 22 5 23 6 0 0 16 -20 34 -46z m995 2 c55 -54 19 -145 -56 -145 -47 0 -69
27 -69 86 0 75 75 110 125 59z m-235 -85 c0 -27 0 -53 -1 -56 0 -4 3 -10 8
-13 5 -3 16 -18 25 -32 19 -31 74 -59 115 -59 27 0 28 -2 29 -49 l2 -49 -82 5
c-101 6 -106 7 -106 35 -1 13 -8 41 -16 63 -8 22 -16 45 -17 50 -1 6 -10 21
-20 35 -9 13 -17 35 -17 47 0 13 -4 23 -10 23 -24 0 -7 30 23 39 63 18 67 16
67 -39z m1840 -6 c0 -30 -4 -53 -9 -50 -4 3 -6 17 -3 31 2 15 0 25 -7 25 -6 0
-11 9 -11 19 0 16 7 24 28 30 1 1 2 -24 2 -55z m-3013 24 c-3 -8 -6 -5 -6 6
-1 11 2 17 5 13 3 -3 4 -12 1 -19z m254 -27 c32 -32 39 -45 39 -79 0 -55 -7
-68 -46 -93 -25 -15 -44 -19 -68 -15 -77 15 -122 120 -76 179 46 58 98 61 151
8z m5669 15 c14 -2 -60 -3 -165 -3 -115 0 -160 3 -115 6 71 6 226 4 280 -3z
m-5149 -306 c-6 -29 -6 -49 0 -56 7 -8 6 -15 -1 -19 -6 -4 -9 -14 -5 -23 3 -9
3 -13 -1 -10 -11 11 -54 -81 -54 -115 0 -28 -19 -78 -20 -52 0 11 -68 35 -100
35 -11 0 -20 5 -20 10 0 6 9 10 19 10 11 0 32 11 47 23 21 19 27 32 26 61 -1
25 3 36 10 34 22 -8 58 47 58 86 0 29 -4 36 -20 36 -13 0 -20 7 -20 20 0 28
-20 25 -21 -2 -1 -21 -2 -21 -6 -3 -3 11 -10 26 -15 33 -7 8 -7 12 1 12 6 0
12 10 12 23 l2 22 4 -22 c5 -27 25 -31 22 -5 -5 56 1 82 21 82 13 0 20 -7 20
-20 0 -13 7 -20 20 -20 18 0 20 7 22 83 2 56 3 41 5 -48 2 -71 -1 -150 -6
-175z m150 160 c22 0 29 -5 29 -20 0 -24 6 -25 27 -5 12 13 18 13 30 3 15 -12
73 -93 73 -101 0 -2 -17 -7 -37 -10 -21 -3 -48 -8 -61 -11 -29 -6 -52 2 -52
20 0 8 -4 14 -10 14 -5 0 -10 -7 -10 -15 0 -8 -4 -15 -10 -15 -5 0 -10 -18
-10 -40 0 -23 5 -40 11 -40 7 0 9 -9 6 -22 -4 -12 -1 -29 6 -37 6 -9 2 -8 -11
3 -21 19 -22 24 -20 190 1 94 3 152 5 129 4 -40 6 -43 34 -43z m5064 45 c6 -2
-32 -4 -82 -4 -51 -1 -93 3 -93 7 0 8 152 5 175 -3z m-2988 -95 c-4 -16 -4
-43 0 -60 4 -23 11 -30 29 -30 17 0 24 -6 24 -18 0 -10 11 -28 24 -41 13 -12
22 -31 21 -44 -1 -12 -3 -30 -4 -39 0 -11 -9 -18 -21 -18 -13 0 -20 -7 -20
-20 0 -28 -30 -25 -32 3 -1 12 -4 -5 -8 -38 l-7 -60 -1 55 c-1 32 -9 65 -18
78 -14 20 -15 41 -9 143 4 69 11 119 17 119 6 0 8 -12 5 -30z m2703 -75 c21
-22 33 -46 37 -72 5 -36 1 -45 -32 -82 -31 -34 -43 -41 -75 -41 -69 0 -126 73
-113 144 3 15 18 39 34 54 52 49 99 48 149 -3z m-5151 -62 c0 -25 -1 -25 -8
-8 -5 11 -7 23 -4 28 8 14 13 7 12 -20z m851 23 c0 -3 -4 -8 -10 -11 -5 -3
-10 -1 -10 4 0 6 5 11 10 11 6 0 10 -2 10 -4z m-99 -67 c29 -29 20 -43 -34
-53 -54 -9 -77 2 -77 39 0 30 7 35 52 35 25 0 45 -7 59 -21z m3082 -39 c5 -22
16 -33 43 -45 42 -17 41 -38 -2 -43 -16 -2 -34 -8 -40 -13 -13 -11 -78 1 -110
19 -17 10 -17 11 -1 12 10 0 17 8 17 20 0 11 3 19 8 19 21 -4 31 4 46 36 19
40 31 39 39 -5z m543 -36 c-3 -7 1 -20 9 -28 22 -22 -2 -25 -60 -6 -49 16 -49
17 -21 24 16 4 35 14 43 22 17 16 37 9 29 -12z m-149 -126 c-3 -8 -6 -5 -6 6
-1 11 2 17 5 13 3 -3 4 -12 1 -19z m-4332 -284 c112 -32 173 -106 182 -218 4
-50 1 -70 -15 -103 -20 -37 -63 -83 -94 -97 -10 -5 -10 -7 -1 -12 111 -52 173
-172 143 -278 -22 -80 -61 -130 -126 -162 -71 -35 -149 -41 -459 -36 l-205 3
0 81 0 80 28 -7 28 -6 -1 326 0 325 -25 -3 c-24 -2 -25 0 -28 63 l-3 65 263
-3 c195 -2 276 -7 313 -18z m884 11 c182 -43 323 -197 351 -382 28 -181 -46
-361 -189 -461 -70 -50 -116 -69 -196 -83 -187 -32 -420 115 -491 311 -95 266
63 558 336 616 75 17 114 16 189 -1z m1034 0 c89 -23 156 -62 223 -129 190
-190 185 -481 -12 -665 -189 -177 -435 -177 -619 0 -145 139 -191 330 -122
506 90 226 309 346 530 288z m955 0 c56 -17 166 -76 196 -105 19 -19 19 -20
-26 -68 -25 -26 -47 -54 -49 -61 -4 -10 -16 -6 -48 17 -72 53 -190 81 -259 63
-64 -18 -92 -46 -92 -92 0 -63 30 -85 158 -114 121 -28 231 -68 267 -98 138
-113 100 -346 -71 -435 -60 -32 -207 -43 -297 -22 -62 13 -178 70 -240 116
l-49 35 44 47 c25 26 49 55 54 65 9 16 15 15 70 -21 83 -55 161 -82 240 -82
99 0 154 38 154 105 0 50 -32 70 -165 106 -263 70 -344 137 -345 283 0 59 29
136 68 179 73 81 259 120 390 82z m1082 -111 c0 -93 -3 -116 -15 -120 -23 -9
-65 5 -65 21 0 23 -30 32 -122 37 l-88 4 0 -299 0 -300 31 7 c31 6 31 5 25
-25 -3 -17 -6 -53 -6 -80 l0 -49 -140 0 -140 0 0 28 c0 15 -3 51 -7 81 l-6 54
31 -5 32 -5 0 216 c0 119 3 252 6 296 l7 80 -107 -3 c-105 -3 -106 -4 -106
-28 0 -22 -4 -24 -45 -24 l-45 0 0 118 0 117 380 -3 380 -2 0 -116z m336 112
c1 0 6 -138 10 -306 9 -298 10 -306 34 -350 79 -141 280 -145 364 -7 26 42 31
62 37 155 11 148 10 353 -1 437 -5 38 -8 71 -7 72 1 1 53 5 115 9 l112 7 0
-62 c0 -53 -2 -61 -19 -61 -18 0 -19 -12 -24 -267 -2 -167 -8 -282 -16 -305
-21 -65 -88 -154 -144 -191 -74 -49 -119 -61 -227 -61 -114 0 -184 24 -263 88
-112 91 -138 186 -137 499 l1 222 -25 -3 c-26 -3 -26 -3 -26 68 l0 71 108 -7
c59 -3 108 -7 108 -8z m1279 -7 c111 -26 204 -99 246 -194 31 -71 32 -173 0
-238 -56 -115 -209 -182 -413 -180 l-108 1 -1 -111 c-1 -62 -1 -129 0 -149 l3
-36 -87 -4 c-48 -2 -90 -1 -95 2 -4 3 -4 86 1 185 11 246 11 583 0 603 -5 9
-10 42 -13 72 l-4 55 210 3 c134 1 229 -2 261 -9z m-4087 -1154 c12 -9 53 -61
92 -115 39 -54 75 -102 81 -105 7 -5 10 28 8 101 l-2 108 33 9 c18 4 34 7 36
5 2 -2 6 -91 10 -198 l7 -193 -44 7 c-47 7 -71 28 -153 136 -22 30 -46 60 -51
68 -7 9 -11 -20 -13 -95 -2 -59 -5 -109 -7 -112 -3 -2 -19 0 -37 5 l-33 10 -3
186 -2 187 22 4 c13 2 25 5 28 6 3 0 16 -6 28 -14z m1348 -16 c24 -11 44 -26
44 -33 0 -7 -18 -21 -39 -31 -33 -14 -45 -15 -72 -6 -48 16 -83 13 -113 -10
-22 -18 -26 -28 -26 -76 0 -51 3 -58 39 -94 32 -32 46 -39 78 -39 43 0 63 14
63 45 0 17 -6 20 -42 20 l-43 0 1 38 c1 21 3 39 5 41 9 8 158 -7 153 -16 -3
-5 -3 -20 0 -33 4 -16 11 -22 24 -18 16 4 18 -1 14 -34 -4 -36 -26 -73 -43
-73 -5 0 -25 -12 -46 -26 -33 -22 -46 -25 -99 -22 -71 4 -125 34 -170 94 -36
46 -46 152 -20 202 48 93 181 125 292 71z m1075 4 c27 -16 49 -31 49 -34 0 -3
-14 -18 -30 -34 -30 -29 -31 -29 -59 -12 -35 21 -81 22 -107 3 -26 -20 -12
-31 66 -51 116 -30 150 -59 150 -130 0 -102 -140 -148 -271 -89 -33 15 -59 32
-59 39 0 7 14 25 31 40 l32 26 19 -20 c25 -27 62 -36 107 -25 26 7 37 15 39
31 3 18 -4 24 -35 32 -21 6 -64 17 -95 26 -99 27 -128 100 -67 170 54 61 150
73 230 28z m-2647 -169 c4 -101 5 -188 2 -192 -3 -4 -23 -9 -45 -10 l-41 -3 0
180 c0 99 -2 185 -5 193 -4 9 7 13 38 15 l44 1 7 -184z m856 166 c47 -24 54
-34 40 -59 -15 -30 -44 -34 -100 -14 -50 18 -52 18 -66 -2 -8 -10 -13 -24 -11
-29 2 -5 35 -20 74 -33 91 -31 123 -61 123 -117 -1 -24 -8 -49 -18 -61 -64
-75 -131 -85 -212 -32 -52 34 -64 63 -35 87 13 11 24 8 64 -14 55 -29 83 -33
101 -11 21 25 7 48 -36 61 -57 17 -95 38 -126 71 -49 52 -39 100 29 143 57 36
115 39 173 10z m277 -147 c7 -93 9 -180 6 -195 -5 -25 -9 -28 -49 -28 l-44 0
0 189 c0 205 -2 197 55 200 20 1 22 -7 32 -166z m755 143 c13 -19 14 -230 2
-323 -5 -38 -8 -43 -30 -43 -33 0 -64 17 -59 33 2 6 6 33 9 59 l5 47 -44 6
c-91 14 -99 55 -16 83 l42 14 -2 65 c-2 47 1 67 12 74 17 11 71 1 81 -15z
m398 -3 c0 -16 3 -39 7 -52 5 -19 3 -22 -13 -18 -10 3 -36 8 -56 12 l-37 6 -3
-153 -3 -153 -50 0 c-45 0 -50 2 -49 23 0 12 -3 22 -8 22 -21 0 8 130 32 138
5 2 10 28 10 58 l0 54 -44 0 c-63 0 -136 11 -136 21 0 5 6 9 14 9 8 0 18 5 22
12 5 7 3 8 -6 3 -9 -6 -11 -4 -6 4 5 7 14 10 21 7 7 -2 15 4 18 15 5 18 15 19
146 19 l141 0 0 -27z m1593 -90 c-18 -2 -48 -2 -65 0 -18 2 -4 4 32 4 36 0 50
-2 33 -4z"/>
<path d="M5943 9355 c0 -8 9 -15 19 -15 17 0 18 2 4 15 -8 8 -16 15 -19 15 -2
0 -4 -7 -4 -15z"/>
<path d="M5808 9323 c7 -3 16 -2 19 1 4 3 -2 6 -13 5 -11 0 -14 -3 -6 -6z"/>
<path d="M4485 9230 c-3 -5 -1 -10 4 -10 6 0 11 5 11 10 0 6 -2 10 -4 10 -3 0
-8 -4 -11 -10z"/>
<path d="M4190 9129 c0 -5 5 -7 10 -4 6 3 10 8 10 11 0 2 -4 4 -10 4 -5 0 -10
-5 -10 -11z"/>
<path d="M5020 9230 c-170 -24 -291 -84 -428 -215 -64 -60 -81 -84 -127 -180
-59 -121 -80 -192 -90 -305 -10 -111 20 -242 80 -360 49 -94 121 -176 274
-311 l63 -56 28 61 c15 34 46 90 69 125 43 68 48 81 29 81 -23 0 -68 53 -68
81 0 44 15 42 58 -5 l41 -44 24 31 c27 36 47 72 47 84 0 5 -15 14 -32 21 -55
19 -123 93 -139 148 -44 157 22 309 166 379 101 50 218 23 302 -68 64 -69 87
-121 87 -197 0 -81 -37 -167 -94 -220 l-40 -37 19 -46 c11 -24 25 -48 31 -52
7 -4 27 8 49 29 41 40 51 38 51 -10 0 -27 -6 -37 -30 -49 -16 -9 -30 -20 -30
-26 0 -16 31 -79 39 -79 3 0 23 13 43 30 30 25 43 29 82 27 34 -1 45 -6 41
-15 -3 -8 -5 -15 -5 -17 0 -3 -27 -23 -60 -45 -33 -22 -60 -46 -60 -52 0 -16
43 -78 54 -78 31 0 226 187 271 261 45 73 92 216 100 305 13 133 -21 300 -87
426 -137 260 -456 419 -758 378z m206 -95 c64 -11 114 -28 179 -60 82 -41 185
-115 185 -134 0 -5 -23 -6 -51 -3 -35 3 -74 18 -127 48 -42 24 -80 44 -85 44
-5 0 -42 14 -84 30 -89 36 -162 39 -220 11 -21 -10 -68 -31 -105 -46 -36 -14
-84 -42 -105 -60 -35 -30 -44 -33 -81 -28 -51 7 -54 24 -10 65 79 74 134 100
264 128 111 23 130 24 240 5z m-72 -81 c35 -34 14 -77 -35 -72 -29 3 -34 7
-37 33 -6 46 40 71 72 39z m161 -147 c39 -19 56 -36 73 -70 12 -24 22 -49 22
-55 0 -6 -26 7 -57 28 -72 47 -147 70 -232 70 -93 0 -129 -13 -229 -80 -103
-69 -134 -100 -138 -137 -1 -16 -10 -59 -19 -98 -18 -76 -15 -144 9 -213 16
-45 13 -52 -20 -52 -36 0 -56 41 -67 138 -8 73 -7 96 8 146 10 33 28 68 41 80
67 59 83 77 129 145 42 62 59 78 105 100 51 24 64 26 190 25 124 -1 139 -3
185 -27z m-545 -42 c16 -19 8 -76 -12 -89 -21 -12 -66 1 -81 25 -5 9 -7 28 -3
43 10 42 68 54 96 21z m790 0 c7 -8 13 -26 13 -40 0 -14 -6 -32 -13 -40 -15
-18 -71 -20 -88 -3 -15 15 -16 53 -2 79 13 23 72 26 90 4z m-955 -64 c4 -18
-2 -47 -15 -82 -12 -30 -30 -80 -40 -113 -17 -52 -17 -60 -4 -74 15 -14 13
-70 -2 -94 -10 -15 -51 -8 -69 12 -15 17 -16 26 -6 86 16 91 53 204 85 259 29
49 41 51 51 6z m1090 -102 c4 -11 11 -19 16 -19 6 0 7 5 4 10 -3 6 -3 10 0 10
11 0 32 -63 45 -133 18 -100 -7 -243 -62 -354 -12 -24 -25 -43 -29 -43 -5 0
-14 18 -20 40 -10 32 -9 43 2 56 7 9 14 21 15 28 1 6 9 31 18 55 20 55 20 72
-1 110 -17 29 -17 31 3 58 18 26 19 32 7 78 -8 28 -14 63 -15 80 -1 16 -7 36
-15 43 -7 7 -13 18 -13 24 0 16 38 -21 45 -43z m-161 16 c46 -47 69 -237 41
-341 -18 -66 -34 -84 -76 -84 -17 0 -20 4 -16 23 36 155 38 171 27 241 -6 38
-20 90 -30 114 -11 25 -20 48 -20 53 0 15 58 10 74 -6z m-990 -348 c8 -29 35
-96 60 -148 27 -57 43 -104 40 -116 -5 -20 -7 -19 -34 6 -35 32 -106 172 -115
226 -3 22 -8 50 -11 63 -4 18 0 22 20 22 21 0 27 -8 40 -53z m252 -143 c4 -15
3 -39 -2 -53 -8 -23 -15 -26 -54 -26 -45 0 -45 0 -48 37 -4 42 23 68 70 68 22
0 29 -6 34 -26z m770 1 c21 -32 10 -63 -29 -80 -28 -12 -34 -11 -49 2 -21 19
-25 89 -5 96 32 14 67 6 83 -18z m-777 -192 c54 -40 70 -68 52 -86 -8 -8 -20
-7 -45 7 -45 24 -104 73 -116 97 -10 17 -7 19 23 19 24 0 50 -12 86 -37z"/>
<path d="M5070 8700 c-40 -9 -116 -86 -143 -143 -40 -84 3 -217 89 -274 24
-16 26 -15 53 18 26 30 33 33 76 31 28 -1 56 -9 67 -18 17 -16 20 -16 41 5 66
61 95 188 59 257 -31 60 -90 111 -142 123 -51 12 -52 12 -100 1z m102 -139
c27 -24 33 -36 33 -71 0 -80 -82 -116 -144 -64 -46 38 -40 103 13 146 31 25
61 22 98 -11z"/>
<path d="M6190 8461 c-45 -13 -39 -81 10 -101 23 -10 33 -10 45 0 8 6 19 9 25
5 5 -3 10 -1 10 4 0 6 9 11 21 11 18 0 20 5 16 42 l-4 42 -49 2 c-27 1 -60 -1
-74 -5z"/>
<path d="M5123 8258 c-25 -27 -104 -153 -186 -298 -33 -58 -80 -139 -105 -180
-25 -41 -88 -156 -140 -255 -52 -99 -101 -187 -111 -196 -9 -10 -43 -25 -76
-34 -119 -33 -261 -116 -430 -251 -427 -339 -662 -922 -591 -1464 50 -378 183
-646 456 -921 167 -168 269 -242 465 -339 256 -126 432 -169 726 -177 221 -6
323 6 503 58 574 169 1012 653 1143 1259 26 122 26 507 0 629 -44 205 -140
431 -258 611 -70 105 -255 297 -374 385 -140 105 -279 182 -357 199 -32 7 -30
5 -128 186 -40 74 -97 173 -125 220 -63 102 -102 167 -134 223 -13 23 -56 94
-96 157 -40 63 -83 135 -96 160 -28 52 -55 61 -86 28z m99 -331 c37 -68 96
-169 130 -225 35 -56 92 -154 128 -217 36 -64 89 -155 119 -203 47 -75 111
-200 111 -217 0 -3 -67 -5 -150 -5 l-150 0 0 -1380 c0 -759 -2 -1380 -4 -1380
-2 0 -28 -5 -57 -11 -57 -11 -372 -14 -414 -3 l-25 6 0 682 c0 374 0 997 0
1384 l0 702 -160 0 -160 0 44 73 c23 39 82 146 131 237 204 383 371 678 385
679 3 1 35 -54 72 -122z m-813 -1028 c6 -18 11 -46 11 -63 0 -46 9 -54 75 -63
l60 -8 -4 -35 c-4 -42 -9 -46 -71 -54 l-47 -6 -9 -58 c-8 -52 -11 -57 -36 -60
-22 -3 -30 2 -38 23 -5 14 -10 41 -10 60 0 36 1 35 -97 50 -47 7 -55 24 -28
62 11 16 30 24 64 29 49 6 49 6 55 50 7 54 32 104 50 104 8 0 19 -14 25 -31z
m1613 -154 c3 -3 -15 -28 -41 -54 l-46 -49 -27 26 c-27 24 -37 51 -20 52 4 1
30 7 57 15 57 16 69 17 77 10z m268 -82 c-1 -54 -29 -164 -60 -227 -33 -69
-73 -110 -162 -163 -82 -50 -88 -50 -88 -14 0 45 22 93 56 121 40 34 91 99
103 133 6 15 8 27 5 27 -2 0 -36 -30 -75 -66 -38 -36 -75 -64 -82 -61 -15 5
-21 49 -12 95 10 55 87 125 166 150 35 12 75 23 89 25 56 9 60 8 60 -20z
m-603 0 c88 -22 138 -62 179 -143 37 -73 44 -120 17 -120 -9 0 -47 29 -84 65
-37 36 -72 65 -78 65 -33 0 14 -73 92 -141 26 -23 57 -59 67 -80 23 -44 27
-84 8 -76 -112 44 -157 68 -190 100 -53 52 -104 162 -121 265 l-14 82 29 0
c16 0 58 -7 95 -17z m-1751 -178 c7 -28 31 -45 63 -45 33 0 71 -22 71 -40 0
-27 -24 -41 -83 -47 -60 -6 -67 -14 -67 -80 0 -41 -9 -63 -26 -63 -14 0 -19
15 -29 93 -6 44 -8 47 -35 47 -27 0 -60 22 -60 40 0 20 34 40 66 40 26 0 34 4
34 18 0 24 28 62 45 62 8 0 17 -11 21 -25z m2582 -199 c42 -22 42 -50 0 -62
-19 -6 -38 -21 -48 -38 -22 -41 -36 -42 -48 -6 -11 29 -30 37 -78 31 -18 -2
-35 25 -28 44 4 9 31 28 60 42 39 18 54 31 54 45 0 18 3 17 28 -9 15 -17 42
-38 60 -47z m-2097 -46 c108 -139 210 -277 256 -345 98 -144 153 -232 153
-242 0 -10 -96 -23 -171 -23 l-36 0 -7 -194 c-4 -106 -5 -238 -1 -292 3 -55 2
-249 -2 -432 l-8 -334 -140 71 c-98 49 -170 94 -241 150 l-101 81 -5 465 c-3
256 -9 470 -14 475 -5 5 -69 10 -141 12 -155 4 -152 -3 -68 118 153 222 255
363 309 430 68 84 138 162 141 158 2 -2 36 -46 76 -98z m1727 -216 l31 -6 -2
-682 -2 -681 -135 -97 c-125 -90 -286 -178 -352 -192 l-28 -6 0 829 0 830 93
4 c188 6 365 7 395 1z m367 -169 c10 -46 13 -49 58 -62 42 -12 47 -17 47 -42
0 -30 -18 -41 -72 -41 -22 0 -27 -6 -35 -37 -12 -50 -34 -49 -49 2 -7 27 -17
41 -30 43 -57 8 -64 13 -64 37 0 20 8 26 40 36 37 11 42 16 56 66 19 65 35 64
49 -2z m-15 -370 c0 -21 5 -25 28 -25 37 0 65 -21 61 -46 -3 -14 -14 -20 -46
-22 l-42 -3 -3 -52 c-3 -48 -5 -52 -30 -55 -28 -3 -28 -2 -28 52 l0 55 -37 3
c-33 3 -38 6 -38 28 0 22 5 26 40 30 34 4 40 9 43 30 6 46 10 52 32 40 12 -6
20 -21 20 -35z m-2616 -115 c16 -3 35 -18 47 -37 l21 -33 -27 -10 c-14 -5 -33
-10 -40 -10 -8 0 -17 -15 -21 -34 -9 -52 -54 -61 -54 -11 0 44 -10 55 -51 55
-34 0 -39 3 -39 23 0 33 12 45 45 49 23 2 32 10 40 33 20 59 28 63 41 20 8
-32 16 -41 38 -45z"/>
<path d="M6348 7613 c12 -2 32 -2 45 0 12 2 2 4 -23 4 -25 0 -35 -2 -22 -4z"/>
<path d="M6063 7505 c0 -8 4 -15 8 -15 4 0 16 -3 26 -7 17 -6 17 -5 -1 15 -22
26 -33 28 -33 7z"/>
<path d="M6895 7477 c-38 -18 -90 -69 -112 -111 -9 -17 -16 -56 -17 -86 -1
-68 37 -143 91 -180 31 -21 48 -25 114 -25 70 0 81 3 120 30 89 63 114 176 59
272 -44 77 -88 107 -164 110 -37 2 -73 -2 -91 -10z m135 -104 c42 -38 62 -98
46 -137 -18 -45 -60 -71 -113 -71 -39 0 -49 4 -74 35 -57 67 -43 145 31 182
49 25 75 22 110 -9z"/>
<path d="M6887 7314 c-7 -8 2 -34 20 -55 18 -21 97 -24 113 -4 7 8 10 22 6 30
-9 24 -35 17 -48 -12 l-12 -28 -4 30 c-2 16 -9 33 -15 37 -14 9 -51 10 -60 2z"/>
<path d="M6346 9195 c-57 -20 -87 -45 -121 -100 -27 -44 -30 -56 -30 -134 0
-76 3 -92 27 -133 52 -87 186 -127 300 -89 73 24 138 134 138 230 0 90 -87
197 -181 225 -63 19 -82 19 -133 1z m133 -100 c16 -8 40 -28 55 -45 66 -79 -2
-210 -108 -210 -37 0 -76 27 -88 61 -5 11 -9 10 -21 -5 -14 -19 -15 -19 -26 2
-16 30 -14 108 4 146 28 58 121 84 184 51z"/>
<path d="M6382 9027 c-12 -13 -24 -37 -28 -54 -6 -28 -3 -31 37 -47 41 -17 44
-16 68 2 34 25 39 70 11 100 -27 28 -61 28 -88 -1z"/>
<path d="M3460 8961 c-26 -50 7 -94 53 -70 40 21 47 47 21 73 -21 22 -61 20
-74 -3z"/>
<path d="M4245 8870 c-3 -6 1 -7 9 -4 18 7 21 14 7 14 -6 0 -13 -4 -16 -10z"/>
<path d="M3922 8620 c-19 -4 -51 -25 -72 -45 -26 -26 -39 -33 -43 -23 -3 7 -5
5 -5 -7 0 -11 -7 -38 -16 -60 -37 -98 -13 -171 85 -250 l69 -56 -1 -277 c0
-152 -4 -298 -8 -324 -4 -26 -5 -45 -1 -43 3 2 14 -28 24 -66 10 -38 22 -69
27 -69 6 0 21 11 34 24 26 26 39 97 34 182 -1 27 -2 171 -1 320 l2 271 37 24
c55 36 78 89 77 179 0 78 -15 122 -58 168 -41 46 -118 67 -184 52z m98 -117
c56 -33 68 -120 24 -172 -34 -41 -72 -41 -118 0 -43 37 -55 83 -32 127 31 59
75 75 126 45z"/>
<path d="M3968 8453 c-41 -10 -27 -87 15 -81 17 2 23 11 25 39 3 38 -8 49 -40
42z"/>
<path d="M3293 6963 c-4 -21 -7 -103 -8 -183 l0 -145 27 -3 c43 -5 51 24 52
190 1 136 -1 148 -19 162 -31 24 -44 19 -52 -21z"/>
<path d="M2205 6931 c2 -5 1 -33 -4 -62 -24 -143 -21 -166 22 -155 29 7 80 88
70 112 -3 8 -1 20 5 27 14 16 3 70 -13 63 -7 -2 -16 -1 -21 4 -12 12 -66 21
-59 11z"/>
<path d="M2762 8250 c-102 -27 -164 -63 -234 -139 -118 -126 -166 -283 -133
-442 22 -110 55 -171 134 -249 127 -126 297 -176 473 -139 70 15 178 72 239
126 63 58 124 177 146 290 15 76 15 87 0 150 -52 211 -196 362 -388 408 -84
19 -148 18 -237 -5z m295 -133 c70 -36 150 -119 179 -184 104 -235 -21 -483
-274 -543 -77 -18 -166 -6 -249 35 -83 40 -143 100 -180 180 -25 53 -28 71
-28 160 0 88 4 107 28 159 75 162 186 228 372 223 85 -3 108 -7 152 -30z"/>
<path d="M2765 8036 c-29 -13 -70 -45 -98 -75 -132 -148 -88 -366 95 -466 98
-54 238 -32 323 51 100 96 124 232 64 352 -34 70 -93 124 -159 147 -66 23
-165 19 -225 -9z m189 -110 c55 -23 106 -108 106 -176 0 -30 -21 -84 -43 -112
-19 -23 -95 -58 -130 -58 -68 0 -145 64 -168 139 -22 74 25 176 96 207 40 17
97 17 139 0z"/>
<path d="M2877 7772 c-14 -15 -15 -21 -5 -30 7 -5 20 -11 28 -12 34 -5 41 0
38 28 -4 34 -37 41 -61 14z"/>
<path d="M7946 8428 c-21 -30 -20 -54 4 -78 25 -25 72 -26 93 -2 37 40 8 102
-48 102 -24 0 -39 -7 -49 -22z"/>
<path d="M6667 7893 c-4 -3 2 -13 14 -21 23 -16 34 -10 26 13 -7 15 -28 20
-40 8z"/>
<path d="M6813 7893 c-7 -2 -13 -16 -13 -29 0 -20 5 -24 30 -24 27 0 30 3 30
30 0 30 -14 37 -47 23z"/>
<path d="M7080 7871 c0 -28 3 -31 31 -31 27 0 30 3 27 28 -2 21 -9 28 -30 30
-25 3 -28 0 -28 -27z"/>
<path d="M7220 7870 c0 -28 3 -30 35 -30 21 0 35 5 35 13 0 23 -18 41 -44 44
-23 3 -26 0 -26 -27z"/>
<path d="M6942 7863 c2 -21 9 -28 26 -29 18 -1 22 4 22 27 0 24 -4 29 -26 29
-22 0 -25 -4 -22 -27z"/>
<path d="M7370 7865 c0 -21 5 -25 29 -25 17 0 31 6 35 16 9 23 -2 34 -35 34
-24 0 -29 -4 -29 -25z"/>
<path d="M1573 7480 c6 -11 15 -20 19 -20 12 0 -3 28 -18 34 -11 4 -12 2 -1
-14z"/>
<path d="M1692 7479 c2 -7 10 -15 17 -17 8 -3 12 1 9 9 -2 7 -10 15 -17 17 -8
3 -12 -1 -9 -9z"/>
<path d="M7650 7626 c0 -2 7 -7 16 -10 8 -3 12 -2 9 4 -6 10 -25 14 -25 6z"/>
<path d="M7633 7603 c-15 -5 -17 -23 -4 -23 5 0 11 7 15 15 3 8 4 15 3 14 -1
0 -8 -3 -14 -6z"/>
<path d="M8333 7210 c0 -47 2 -66 4 -42 2 23 2 61 0 85 -2 23 -4 4 -4 -43z"/>
<path d="M8383 6033 c15 -2 39 -2 55 0 15 2 2 4 -28 4 -30 0 -43 -2 -27 -4z"/>
<path d="M7218 5927 c-56 -43 -55 -64 5 -101 l48 -29 40 39 c37 36 47 64 24
66 -5 0 -16 9 -23 19 -28 40 -48 41 -94 6z"/>
<path d="M8366 5841 c-3 -5 1 -11 9 -14 9 -4 12 -1 8 9 -6 16 -10 17 -17 5z"/>
<path d="M1582 6762 c-162 -58 -247 -231 -196 -402 41 -138 145 -209 304 -210
98 0 197 66 248 164 22 43 26 64 26 136 1 75 -3 93 -30 150 -70 145 -213 211
-352 162z m122 -136 c34 -14 107 -102 126 -150 11 -29 -2 -75 -32 -119 -47
-66 -173 -94 -222 -48 -38 36 -78 128 -71 162 7 33 86 124 130 151 36 22 28
21 69 4z"/>
<path d="M1647 6454 c-9 -10 2 -24 19 -24 8 0 14 7 14 15 0 15 -21 21 -33 9z"/>
<path d="M8780 6670 c0 -5 5 -10 10 -10 6 0 10 5 10 10 0 6 -4 10 -10 10 -5 0
-10 -4 -10 -10z"/>
<path d="M1192 6280 c7 -10 14 -18 15 -16 6 6 -9 36 -18 36 -5 0 -4 -9 3 -20z"/>
<path d="M7773 5655 c-185 -40 -356 -210 -394 -393 -6 -33 -10 -103 -7 -169 4
-108 6 -115 46 -197 109 -219 328 -334 567 -297 177 28 335 163 406 350 31 79
38 236 14 316 -59 206 -215 353 -412 391 -90 17 -138 17 -220 -1z m228 -111
c89 -27 144 -60 198 -121 78 -89 103 -149 109 -264 4 -80 1 -109 -17 -167 -52
-173 -183 -284 -352 -298 -184 -16 -337 73 -422 246 -31 62 -32 70 -32 185 0
116 1 123 33 187 56 115 168 213 269 237 61 14 155 12 214 -5z"/>
<path d="M7818 5440 c-75 -22 -208 -150 -229 -218 -16 -55 -8 -188 16 -236 24
-50 105 -130 158 -158 64 -32 166 -36 241 -8 109 41 175 124 202 251 14 68 14
76 -5 139 -11 36 -34 85 -51 109 -70 96 -226 153 -332 121z m137 -101 c42 -12
104 -70 132 -123 8 -16 16 -54 16 -85 2 -68 -38 -148 -92 -190 -30 -23 -44
-26 -110 -26 -70 0 -80 3 -125 34 -114 79 -127 231 -27 331 64 64 125 81 206
59z"/>
<path d="M7932 5220 c-6 -17 -19 -40 -28 -53 -17 -23 -17 -19 -2 33 3 8 3 12
1 9 -2 -3 -15 -4 -28 -1 -71 13 -118 -45 -96 -119 33 -110 173 -121 226 -19
19 37 19 64 -2 120 -9 25 -17 46 -17 46 -1 1 -11 4 -22 8 -18 5 -24 1 -32 -24z"/>
<path d="M3172 5560 c0 -14 2 -19 5 -12 2 6 2 18 0 25 -3 6 -5 1 -5 -13z"/>
<path d="M3333 4383 l2 -113 83 0 82 0 0 30 0 30 -75 0 -75 0 0 30 0 30 69 0
c61 0 72 3 85 22 21 30 7 38 -74 38 -68 0 -83 5 -93 30 -3 8 -4 -36 -4 -97z"/>
<path d="M2445 4456 c-17 -12 -18 -26 -12 -241 5 -168 10 -231 19 -237 20 -13
785 -5 798 8 13 13 19 452 7 472 -12 19 -786 18 -812 -2z m583 -151 c3 -61 -9
-85 -35 -69 -23 14 -31 103 -11 116 29 18 43 4 46 -47z m-302 -31 c7 -62 -1
-78 -37 -72 -20 2 -24 10 -27 45 -4 50 11 83 38 83 15 0 20 -10 26 -56z m157
11 c23 -49 22 -82 -5 -96 -27 -15 -43 5 -53 62 -12 70 30 94 58 34z m247 -120
c0 -30 -5 -37 -40 -55 l-40 -21 -10 26 c-18 48 -13 73 18 78 69 10 72 9 72
-28z m-502 -27 l-3 -53 -37 -3 -38 -3 0 49 c0 27 3 52 7 55 3 4 22 7 40 7 l34
0 -3 -52z m180 14 c5 -34 -24 -74 -51 -70 -17 2 -23 11 -25 36 -5 52 3 64 40
60 26 -2 34 -8 36 -26z m167 -11 c10 -32 -5 -51 -40 -51 -35 0 -50 19 -40 51
9 27 71 27 80 0z"/>
<path d="M3334 4195 c-15 -37 2 -46 83 -43 76 3 78 4 78 28 0 24 -2 25 -78 28
-62 2 -78 0 -83 -13z"/>
<path d="M3218 3683 c7 -3 16 -2 19 1 4 3 -2 6 -13 5 -11 0 -14 -3 -6 -6z"/>
<path d="M6932 4817 c-60 -63 9 -139 97 -107 42 15 51 25 51 62 0 19 -9 31
-36 47 -46 28 -85 27 -112 -2z"/>
<path d="M6528 4343 c6 -2 18 -2 25 0 6 3 1 5 -13 5 -14 0 -19 -2 -12 -5z"/>
<path d="M1623 5215 c-30 -21 -38 -63 -17 -86 34 -38 104 -13 104 37 0 45 -51
74 -87 49z"/>
<path d="M2480 5000 c0 -5 5 -10 10 -10 6 0 10 5 10 10 0 6 -4 10 -10 10 -5 0
-10 -4 -10 -10z"/>
<path d="M8840 4739 c0 -11 5 -17 10 -14 6 3 10 13 10 21 0 8 -4 14 -10 14 -5
0 -10 -9 -10 -21z"/>
<path d="M1639 4559 c-22 -22 -23 -32 -9 -60 15 -27 75 -26 90 2 25 46 -44 95
-81 58z"/>
<path d="M8201 4266 c-7 -8 -11 -32 -9 -52 3 -34 7 -40 35 -48 47 -13 83 13
83 59 0 24 -6 37 -19 45 -28 15 -77 12 -90 -4z"/>
<path d="M8090 4180 c0 -5 5 -10 10 -10 6 0 10 5 10 10 0 6 -4 10 -10 10 -5 0
-10 -4 -10 -10z"/>
<path d="M8566 4124 c-24 -23 -21 -89 5 -115 24 -24 70 -21 101 8 24 22 24 84
0 106 -23 21 -86 22 -106 1z"/>
<path d="M7776 3951 c-40 -27 -55 -57 -56 -113 -1 -117 139 -167 215 -77 33
40 35 114 4 153 -44 56 -111 71 -163 37z"/>
<path d="M6412 4018 c-16 -16 -15 -60 1 -80 23 -30 55 -31 82 -4 27 27 31 46
15 77 -12 22 -78 27 -98 7z"/>
<path d="M5651 3599 c-72 -38 -152 -130 -170 -196 -32 -115 0 -243 78 -316 76
-71 123 -91 211 -92 116 0 216 53 275 146 54 84 62 204 19 299 -50 112 -151
180 -279 188 -64 4 -75 1 -134 -29z m205 -85 c119 -57 166 -197 107 -315 -23
-45 -37 -59 -82 -81 -64 -33 -119 -36 -176 -9 -83 38 -135 115 -135 200 0 64
11 91 57 142 66 73 156 98 229 63z"/>
<path d="M5780 3425 c0 -8 -18 -28 -40 -43 -32 -22 -39 -33 -40 -60 -1 -99
100 -152 152 -80 36 51 31 97 -17 151 -43 49 -55 56 -55 32z"/>
<path d="M6821 3559 c-41 -12 -127 -97 -147 -144 -46 -111 17 -267 128 -315
107 -46 231 -6 293 94 25 42 31 62 33 125 5 100 -20 149 -101 205 -48 33 -66
40 -115 42 -31 2 -72 -1 -91 -7z m151 -126 c107 -97 18 -282 -116 -241 -59 19
-81 50 -81 118 1 48 5 64 25 85 13 14 28 25 35 25 6 0 19 10 29 21 14 17 25
20 53 16 20 -4 44 -14 55 -24z"/>
<path d="M6860 3390 c83 -64 77 -61 84 -43 9 21 1 27 -59 46 l-50 17 25 -20z"/>
<path d="M2267 3263 c-13 -12 -7 -50 9 -64 13 -11 20 -11 42 1 32 19 37 34 17
54 -17 16 -56 22 -68 9z"/>
<path d="M2840 2940 c0 -11 5 -20 10 -20 6 0 10 9 10 20 0 11 -4 20 -10 20 -5
0 -10 -9 -10 -20z"/>
<path d="M7723 3022 c-35 -5 -48 -28 -33 -57 15 -28 41 -39 70 -30 15 5 20 15
20 40 0 37 -20 54 -57 47z"/>
<path d="M2268 2313 l-58 -4 0 -101 0 -100 143 4 c86 2 151 9 164 16 63 35 59
146 -6 171 -31 12 -164 20 -243 14z"/>
<path d="M2205 1840 l0 -111 139 -4 c156 -6 205 3 235 42 25 31 28 99 5 131
-31 45 -63 52 -226 52 l-153 0 0 -110z"/>
<path d="M3253 2291 c-71 -24 -113 -59 -147 -121 -59 -109 -43 -260 37 -347
133 -145 343 -115 435 61 23 44 26 63 26 141 0 103 -16 144 -81 207 -77 75
-168 95 -270 59z"/>
<path d="M4264 2291 c-156 -71 -215 -257 -133 -416 65 -125 208 -179 331 -123
71 33 118 75 148 135 21 41 25 62 25 143 0 104 -9 130 -68 196 -68 78 -208
108 -303 65z"/>
<path d="M7848 2164 l3 -147 117 7 c147 9 184 19 216 56 51 62 41 144 -24 192
-32 23 -121 38 -230 38 l-85 0 3 -146z"/>
</g>
</svg>
